<svg id="Layer_1" data-name="Layer 1" xmlns="http://www.w3.org/2000/svg" viewBox="0 0 500 500"><defs><style>.cls-1{fill:#fefefe;}.cls-2{fill:#b3a7da;}.cls-3{fill:#473d5c;}.cls-4{fill:#655882;}.cls-5{fill:#8e7fb0;}.cls-6{fill:#ceccef;}</style></defs><path class="cls-1" d="M649.9,424q0,111,.1,221.92c0,3.42-.67,4.09-4.1,4.09q-245.89-.16-491.8,0c-3.43,0-4.1-.67-4.1-4.09q.19-113,.1-225.92c3.5-1.93,5.64-5.21,8-8.25,7.23-9.43,15.08-18,26.35-22.92,3.51-1.52,7.9-.8,10.61-4.23,1.78-2.26,3.07-1.91,4.33.6.56,1.12,1.78,1.91,2.71,2.84,3.09,6.72,9,10.63,14.49,15.14,4,3.34,8.69,4.09,13.53,4.69l6,.21c0,1.45,0,3.23,1.69,3.53,1.93.34.79-2.6,2.45-2.9,4.2-.51,7.69,2.72,11.88,2.24,5.83,2.6,12.28,3.56,17.94,6.64l18.21,14.5c-.34,3,2.45,3.4,4,4.87-3.94,4.1-4,8.46-.19,14.1,3.73,4.08,4.8,4,7.33-.75A20.76,20.76,0,0,1,301,448c2.51-2.18,5.17-3.65,8.1-.85,1.19,1.13,2.78.72,3.95,1.57,4.91,1.15,7.32-1.54,8.77-5.7,1.72-3.8,1.7-7.49-.7-11-6.75-8.84-6.85-19.4-8.14-30.66,4.87,4.82,9,9.08,14.11,12.11a3.41,3.41,0,0,1,2,2.72c.08,4.37,3.09,7.42,4.74,11.09,1.23,2.75,4.84,4.09,4.41,7.72-.24,11.13,2.08,14.73,10.8,16.81,1.76-.38,5.05,1.84,4.44-2.6l1.6-1.49a11.3,11.3,0,0,0,12,3.85c5.07-1.27,2.55-4.36,1.69-7-1.45-4.54-6.48-7.82-4.73-13.48,1.11-3.49,2.25-7-1-10l-.33-2.95a8.12,8.12,0,0,0-1.66-5l-4.21-11.93c1.84-2.1,3.08-.48,4.42.7,1.93,1.71,3.4,3.94,5.82,5.1l.05.06.91,1c2.36,3.42,4.47,7,8,9.5,6.87,4.86,12.83,6.57,18.38,0,.8-1.59.09-2.5-1.37-3.08.09-.84-.37-1.2-1.12-1.32-2.45-4.78-6.56-8.57-8.34-13.74-3.28-9.58-11.36-15.51-17.37-23-3.26-7.19-9.21-10.68-16.49-13.09-8.85-2.94-16.61-9.3-26.7-8.26l-1-1c-.12-.54-.33-.95-1-.71-2.81-1.16-4.71-3.5-7-5.39-6-9.52-14.07-15.28-26-13.75A241.65,241.65,0,0,0,251,332a.6.6,0,0,0-.58-.05l-2.41-1,.08,0-1.18-.62c-4.25-.69-7.79-3.27-11.86-4.45a.9.9,0,0,0-1.24-.52l-2.76-.18c-4.78-2.59-9.94-.54-14.88-1.21-.25-2.54-2.23-1.75-3.76-2-7-1.33-14.21-1-21-2.27-15.18-2.74-28.27,2.08-41.33,8.33q0-87-.1-173.94c0-3.42.67-4.09,4.1-4.09q245.9.17,491.8,0c3.43,0,4.11.67,4.1,4.09q-.19,93.47-.1,186.93c-7.11,4.5-14.65,7.38-23.29,7.08-3.21-.11-6.62-.87-9.69.92-3.91-.16-6.88,2.12-10,3.87-6.66,3.15-13.42,6-21,6.12-9.41-.27-18.86-.71-27.09,5.18l-11,2.77c-7.63,1-14.45,3.7-20,9.19-3.71-.56-6.22,2.7-9.72,3-6.71.55-13.4,1.33-20.1,2L494,384c-4.52,1-8.9.39-13.46-.3-7.42-1.12-15-1.52-22.4.62-3.27,1.26-6.71.44-10.06.81-2.93-.83-4.08,2-6.11,3-4.41,1.26-8.77,2.84-13.26,3.67-2.48.46-4.88.58-6.77,2.46-5.39,0-9.43,4.34-14.79,4.65-1.24.07-.89,1.92-.93,3.05H406c-4.24,2.82-4.06,4.29,1,8.05,1.05,2.12,3,2.11,4.94,2.07,2.39,1.55,5,1.74,7.82,1.79,8.09.16,15.64-2.31,23.32-4.21,3.52.59,6.9-.13,10.3-.91,3.65-.84,7.24-2.41,11.07-1.65,9.45,1.89,18.76,4.72,28.57,3.77l.93,1.19c2.09,2,4.23,3.93,7,4.88,2.52.85,2.4,2.27,1,4.06-1.83.73-2,2.63-2.87,4.05L495,429c-5.56,4.55-10.9,9.4-17.69,12.15-4,4.81-4.09,8-.27,12.25a14.94,14.94,0,0,0,5.88,4.41L485,458a9.69,9.69,0,0,0,8.24,2.2c4.73-.78,9.74-.33,14.6-1-1,6.48-.18,13.24-2.48,19.47-3,8.18-.47,16.27-.25,24.4,0,1.14-1.19,1.87.51,3.47,3.28,3.1,5-.52,7.36-.76s4.3-.84,4.79-3.36a216.19,216.19,0,0,1,7.69-27.27c1.62-4.81,3.32-9,6.55-12.77,2.36-1.18,3.47-3.47,4.89-5.48,2.9,2.61.09,5.46.33,8.18-.62,6-3.85,11.82-1,18l-.25,2.85c-2.1,4.09.9,7.22,2.12,10.62,2.22,6.19,4,6.83,10.75,4.47,6.42-3.85,8-7.23,6.37-14.4-.59-2.63-.3-5.29-.57-7.88-.52-4.88,4-7.46,4.68-11.41.93-5.15,4-5.52,8.12-5.75,3.48-.19,7,1.25,10.51-.82,5.1-3,10.56-5.36,15.87-8,9.84-2.31,14-12,22-16.8l0,0c2.06-1.62,4.85-2.38,6-5.07a4.48,4.48,0,0,0,4.2-3c1.58-4.78,5.39-4.66,9.21-5.09C640.27,422.25,645,424.12,649.9,424ZM426.39,345.38c3.8-.89,7.16-1.81,10.05-4.05A4.69,4.69,0,0,0,438,336a4.23,4.23,0,0,0-4.46-3.15,11.28,11.28,0,0,0-7.33,2.13c-2.58,2-6.55,1.83-8.38.4-2.32-1.79.65-4.89,1.38-7.38.56-1.86,2.09-2.57,3.87-1.11,1,.84,1.83,2,3.27.51a2.56,2.56,0,0,0,.66-2.74c-.52-1.33-1.72-1.71-3.21-1.8-4.85-.31-9.22,2.9-10.64,8.52-.63,2.48-.5,4.93-4.22,4.65-1.37-.1-2.19,2.41-1.92,2.89,2.57,4.5-2.39,4.79-3.87,6.81-.91,1.24-3.09,1.27-3-1.49a23.92,23.92,0,0,1,.08-4c.46-2.2,2.21-4.68,1.61-6.42-1-3-3.73.09-5.87-.39-9-2-16,5.34-14.07,14.48.87,4.14,3.83,5.11,7.67,3.39,2.85-1.27,3.31-4.7,6.38-5.83-.58,2.7.49,4.73,2.63,5.46,5.16,1.77,7.59-3.13,11.27-5.48.1,4.15-2.23,7.46-2,11.26.08,1.5.19,2.5,2.11,2.49s2.06-.76,2.27-2.35c.57-4.16,1.65-8.26,2.19-12.42.69-5.27,3.61-6.33,8.17-4.88-2.32,8.76.57,13.23,8.18,12.61,4.5-.36,14.84-8.39,16.17-12.43.42-1.28-.28-1.9-1.06-2.45-1.11-.79-1.45,0-2.15.9a36.62,36.62,0,0,1-5.44,5.76C433.31,348.11,429.59,348.54,426.39,345.38ZM425,366.32c-8-1.11-11.72,1.14-11.15,6.69.3,2.92,1.65,4.19,4.57,2.26.8-.53,1.28-2.52,2.5-1.41,3.25,2.94,5.32.59,7.62-1.53.49,4.17,2.55,4.53,5.73,2.84.55-.29.47-1.51,1.47-1,3.08,1.63,3.08,1.64,3.71-1.85,2.81,3.27,5.93,4.41,8.35.21.88-1.53,3.65-3.84,1.54-5.36-1.87-1.34-2.29,2.06-3.45,3.24s-2,1.89-3.58.34c-2.08-2,.79-1.62,1.1-2.45.41-1.12,2.44-3.45.87-3.06-5.12,1.28-2.75-2.3-3.16-3.92-.68-2.65-2.68-1.25-4.07-1.36s-1.62,1.58-1.12,2.12c5.59,6-3.18,6.53-3.46,10.26a31.77,31.77,0,0,1,1.15-8.16c.41-1.47.57-4.06,0-3.91-1.9.46-4.13-.91-5.24.07-1.47,1.3-.3,3,1.44,3.77,1.41.62.08,1.28,0,1.84-.38,3.26-2.88,4.48-5.46,5.5C423.41,369.59,425,368.05,425,366.32Zm-55.3-12.14c2.3-.13,6.48-1,8-5.37,1.59-4.56-.46-8.17-4.7-10.49a5.21,5.21,0,0,1-1.41-1.4c-1.12-1.42-3.71-2.34-1.92-4.85,1.63-2.26,3.57-2.48,6-1,.76.45,1.92,1.91,3,.71a3.86,3.86,0,0,0,.34-2.83c-.21-1.22-1.14-1.81-2.45-2.06-4.4-.86-10.6,1.4-11.51,4.73-1.23,4.52.82,8.09,4.61,10.43,1.25.77,1.64,2,2.53,2.7,1.8,1.54,1.82,3.23.48,4.55a4.73,4.73,0,0,1-5.37,1.3,5.67,5.67,0,0,1-2.92-3c-.4-.86-.57-2.16-1.93-1.56a2.83,2.83,0,0,0-1.64,2.32C360.44,351.49,363.54,354.13,369.73,354.18ZM413.79,361c-2.56,3.37-6.23,1.39-9.39,1.9-1.49.24-2.49,1-2.51,2.5,0,2.05.78,1.89,2.47,1.15s.57.76.52,1.29c-.14,1.59.08,3.16-.74,4.77-.47.93-1.39,3,1,3.53,2.06.42,1.88-1.2,2.13-2.44.82-4.05,1.31-8.27,6.91-8.66,1.55-.11.78-1.88.86-2.93C415.13,361.28,414.59,361,413.79,361Z" transform="translate(-150 -150)"/><path class="cls-2" d="M216.21,324c4.94.67,10.1-1.38,14.88,1.21,3.38,5.61,10.09,4.78,14.92,7.61.69.4,1.2-.82,1.25-1.69a5.11,5.11,0,0,0,.87-.15l-.08,0c.45,1.18,1.4,1.18,2.41,1a.6.6,0,0,1,.58.05,2.79,2.79,0,0,0,0,.58L249.59,334c5.76,4.53,12.89,4.46,19.59,5.84,5.47,1.75,11,3.33,16.8,3.22.61,3.92,2.59,3.51,5,1.59l3.82.07c2.72,2.06,5.93,1,8.91,1.39.7,2.51,4.43,2.76,4.37,5.84-.77.13-1.82.07-1.64,1.22.06.35,1,.57,1.52.86-.38,4.33,1.07,7.06,5.72,8.24,2.63.66,4.91,2.07,7.86,2.54s6.66.26,9.42,2c2.49,1.56,4.22,1.16,6-.75l2,.95c.58,1.43-2.94,2.79-.74,3.56,2.79,1,6,.71,8.86,2.06.64.3.92-1.49.92-2.49l2.92.06c-.32,2.44-3.72,4.52-.73,7.75a17.94,17.94,0,0,1,1.18-2.4c1-1.43,2.5-2.71,4.13-2,2.16,1-.3,2.09-.4,3.2-.22,2.57,3.32,6.33,5.87,6.18l2,.07c1.79,4,6.06,5.21,8.88,8.05l1.81.32,2.5,4.37c-1.71,1-2.7,3.57-5.34,2.4-3.2-1.42-7-.74-9.72-4.24-2.44-3.13-2.81,1.47-4.31,2.26a9.17,9.17,0,0,1-5-4.52c-3.28-8.13-9.82-9.27-17.3-8.86a4.17,4.17,0,0,0-.49.08c-1.12-1.3-2.67-.57-4-.83-7-1.58-12.89-7.79-21.41-2.87-4.1,2.36-9.87-.93-14.8-2.15l-.8-.94-.24-1.11c1.42-.62,3.41-.71,3.09-3a1.72,1.72,0,0,0-1.6-1.59c-1.95-.09-2,1.82-2.91,2.89a9.2,9.2,0,0,0-.77,1.24l-9.44,4.7c-2.12-.71-4.55.54-7.23-1.43,4.23.1,5.49-3.14,7.54-5.17,1.48-1.47.95-3.44-1.74-3.69-1.14-.11-2.3-.13-3.45-.2-.2-2.11.2-4.88-3.5-3.15-.86.4-1.5-.26-2.24-.64-4.17-2.16-8.23,1.05-12.4.39a1.54,1.54,0,0,0-.57,1.14c.88,3.38-1.33,3.54-3.67,3.62-2.77.11-2.67,2.57-3.39,4.3-.62,1.47-.71,3.56.86,3.92,4.14,1,6.8,4.61,10.86,5.54l1.19,1.93c-.33,3.45,1.73,6.88.41,10.27a3,3,0,0,0,2.6,4.34c4.81.19,8.37,3.54,12.83,4.39l2.65.46c.35,1.78,1.33,2.8,3.24,2.69l4,2c-.61,2-1.12,4.14-1.87,6.14-.39,1-1.65,1.91-.11,2.94,1.13.76,2.31,1.27,3.71.5.95-.52,1-2.25,2.95-1.75-.2,2.58-1.72,5.44.76,7.81.2.19-.14,1.37-.54,1.71-4.47,3.72-.27,3.82,1.95,4.76l3.4,2.5.19,1.38-1.57.23-8-4.07c.25-3.45-4.83-4-4.18-7.95.26-1.57-.34-4.41-3.79-2.58-1,.55-3.51-.19-4.38-1.69-1.77-3-4.61-3.47-7.6-3.83-5.32-3.83-11.46-5.33-17.8-6.26-4.18-3-10.29-2.71-13.16-7.86Q237,396.52,235,391.14c2.88-.85,5.53-1.18,6.1,2.87.63,4.38,4,5.59,7.54,6.9,2.48.92,4.78,2,6.65-.67,1.38-2,3.92-3.95.78-6.63-1-.83-.07-2.3-.3-3.22-.92-3.64-.92-8.37-5.79-9.18-7.71-1.27-12-6.23-15.23-12.68-1.47-2.92-2.82-6.27-6.33-7.14-5.85-1.45-7.65-6.61-10.24-10.86-1.39-2.29-2.69-3.64-5.33-3.48-3.76.23-6.89-.59-8.57-4.47-1-2.23-3.1-1.43-4.84-1.49-1,0-2.34.32-2,1.55,1,4.09-1.17,7.76-1.26,11.68s4.8,11.59,8.46,12.71a4,4,0,0,1,2.58,2.11c2.29,4.42,6.31,7.35,10.09,10.08,4,2.86,7.55,6.75,13.14,7.28,1.55.14,5.37.87,4.57,4.64-2.55-.06-3.19,1.3-2.27,3.41,1.07,2.49,2.37,4.89,3.57,7.33a4,4,0,0,0-.18,1c-5.12-1.38-7.24-7.14-12.87-8.83l.88,4c-5.89,0-12,1-16.13-5.07-1.16-1.69-1.64-4-3.87-4.93-2.31-4.67-7.55-7.91-6.89-14,.85-2.79-1.47-4.6-2.13-6.91-.43-1.23-.54-2.78-1.37-3.63a22.92,22.92,0,0,1-5.57-10.65c-1.11-4.23-3.56-6.24-7.94-3.3a5.13,5.13,0,0,1-2.37.38c-5.65.38-11.21-1.55-17-.22-1.69.38-6.44,1.29-6.8-3.48,1.31,0,2.46-1.27,3.84-.63,8.55,4,16.37.69,24.13-2.51,2.52-1,4.6-3.44,2.39-5.86-3.21-3.51-6.41-7.4-12.21-7.23-7.59.22-14.76,2.3-22,4.1v-4c3.82-.24,7.32-1.75,10.7-3.27,9-4.05,17.86-6,28.11-4.1C197.73,324.34,207.12,322.89,216.21,324Zm23.21,15.88a13.82,13.82,0,0,0-5.42,1c-3.82,1.52-3.83,4.26-1.77,7.64,2.4,3.95,6.51,6.42,8.17,11.06,1,2.89,5.9,2.75,7.18,6.23a5.41,5.41,0,0,0,1.36-.38c3.41-1.6,6.83-3.18,10.19-4.87,2.81-1.4,4.37-8.12,1.92-9.66-2.94-1.87-4.68-5.38-8.68-5.87C247.67,344.47,244.23,340.36,239.42,339.89ZM305,365.17c-2.09-3.55-4.41-7.12-8.76-9.24-3.82-1.87-8.74-1-11.71-5.32-.9-1.3-4-1.13-6.08-1.53a1.7,1.7,0,0,0-2.08.94,1.94,1.94,0,0,0,.61,2.23c3.74,3.82,7.67,7.46,11.44,11.22,4.54,4.52,10.22,2.81,15.25,4.31C304.73,368.1,305,366.62,305,365.17Z" transform="translate(-150 -150)"/><path class="cls-3" d="M507.85,459.21c-4.86.64-9.87.19-14.6,1A9.69,9.69,0,0,1,485,458c2.47-.34,5.38,1.08,7.2-1.83l1.77,0c4.11,1.15,7.73-1.76,11.74-1.41,8.13-1.68,12.71-7.42,11.95-15,.09-.59.17-1.19.25-1.78,3,1.12,3.42-.49,3.07-2.9a1.23,1.23,0,0,1,.72-.25c2.41.23,5,.78,5.18-2.93a10.83,10.83,0,0,1,7-5.07c2.64,2.58,5.86,6.3,9.3,3.88,3.28-2.31,6.81-.5,9.77-2.48,1.28-.86,2.78.12,4,1.18,1,.86,1.59,2.66,3.61,1.87l-.22-1.44c-1.21-7.5-.46-8.21,6.78-7.07,1.75.27,4.11,1.27,4.86-1.73a1.89,1.89,0,0,0,.83-2,2.28,2.28,0,0,1,2.1,1.06c2.11,4,4.92,2.38,6.65.16,2.43-3.11,4.57-6.09,7.75-8.83,6.73-5.78,9.58-14.21,9.73-23.27,2.07.39,4,.83,6.23,0,4.09-1.48,7.74-.88,9.7,3.81.61,1.48,1.6,3.21,3.66,2.6s4.12-.59,4.57,1.35c.35,1.52-2,2.21-3.4,3-4.07,2.43-4.07,3.08.08,5.55.84.5,2.1.85,1.92,2-.59,3.86,2.22,3.24,4.39,3.48,3.08.34,5.76-1.15,8.63-1.84,4.94-1.17,9.76-3.69,15.1-2.12v18c-4.9.13-9.63-1.74-14.6-1.19-3.82.43-7.63.31-9.21,5.09a4.48,4.48,0,0,1-4.2,3c2.44-5.23,1.08-6.16-4.78-6.36-5-.17-4.83,2.94-6.23,5.21-1.81,2.95,2.17,2.34,2.93,3.92.35.72,2.05.85,2.08,2.3l0,0c-2.65.8-3.06.57-4.68-1.4-.81-1-2.16-.65-3.27-.37-1.42.35-2.34,1.72-4,1.86-3.09.26-4.58,1.52-2.66,4.8,1.16,2,.25,3.7-1.93,2.93-4.8-1.68-8.79,2.76-13.42,1.31-7.48-.86-14.8-2-21.57-5.89-2.72-1.53-4.37.23-4.37,3.71.26,1.1,1,2.67-1.28,1.3-.83-.5-1.72-.9-2.58-1.35l-.3-1.76c.59-4.75-3-3.94-5.69-4.26-.56-2.4-1.67-3.65-4.18-2-4.48.89-9,1.72-12.92,4.25-2,.21-3.93,1.07-3.48,3.17.91,4.23,6,7.72,10.39,7.77,2.07,2.56,4.18,5,8.06,3.87l3.94.07c3.24,1.77,5.78,5.27,10.2,4.18l1.78-1c1.45-.13,3,.12,4.2-1,2.22.4,3-2.18,5-2.34,7.44,5.16,12.87.42,18.43-3.71a2.69,2.69,0,0,1,2.35,2.71c-5.31,2.63-10.77,5-15.87,8-3.54,2.07-7,.63-10.51.82-4.15.23-7.19.6-8.12,5.75-.72,3.95-5.2,6.53-4.68,11.41.27,2.59,0,5.25.57,7.88,1.61,7.17.05,10.55-6.37,14.4,1.3-4.55,4.44-8.84,1.94-13.92.21-2.51.69-5.2-3.31-4.8l-2.62-.5c-1.76-4,1-2.71,2.86-2.42,1.55.24,4.22,1.83,3.47-1.57-.7-3.19.09-4.63,2.67-6.55,3.87-2.9,4.14-10,.83-10.94-2-.58-3.38-2.06-5.35-2.4-1.65-1.27-3.52-.87-5.36-.71l-3.69-.61c-1.32-1.78-2.56-2.68-3.44.32-1.42,2-2.53,4.3-4.89,5.48-.77-2,1.5-3.92.2-6.15-4.32,4.94-8.72,9.3-15.18,10.68L516,466c-.13-1.71,2-2.12,2.1-3.71l3-.15c1.5,1.42,1.77.2,2.06-1l1.06-1.09c2.78-1.12,4.31-3,3.74-6.16.11-.6.23-1.2.34-1.8,3.83-2.66,3.7-4.61-.54-8-3.28,1-6.51,2.38-8.8,4.85C515.43,452.69,511.53,455.82,507.85,459.21Zm74.3-26c1.36-1.85,4.53-.29,5.23-2,1-2.46,1.71-3.26,4.51-2.62,1.64.38,3.69-1.71,3.43-3.4-.31-1.93-2.34-.94-3.67-.48-1.51.54-2.84.07-4.3-.32-1.88-.49-3.57.14-2.88,2.49.89,3.05-.34,3-2.65,2.39-1.18-.32-2,.53-1.68,1.71C580.36,431.89,580.46,433.28,582.15,433.16Z" transform="translate(-150 -150)"/><path class="cls-2" d="M521.71,434.81a1.23,1.23,0,0,0-.72.25,2.66,2.66,0,0,0-3.43,1.78c-2.45,1-4.31-4-7-.68-4.13-1.62-3.11-6.45-5.64-9.07l2.14-.09c2.29.35,3.74,1.89,5.2,3.49,3.12,3.38,5.89,3.32,9.38.35,2-1.7,2.25-5.45,3.15-5.81,2.91-1.15,4.38-3.82,6.89-5.08,1.8-.91,3.66-3.62,5.46-2.39,3.18,2.16,4.58-.06,6.23-1.63a29.34,29.34,0,0,0,7.7-11.34c1.12-3.1,2-6.95,5.92-8,2.72-.73,3.24-2.44,3-4.82-.33-2.78.18-4.79,3.58-5.17,1.9-.21,2.53-1.85,2.46-3.75-.16-4.15,2.37-6.49,6-6.12,3,.29,5.27-4,8.33-.88.1.09,1.17-.59,1.17-.6-1.63-3.3,2.1-6.42.47-9.54-1.2-2.28-.25-2.76,1.62-2.59,4,.38,2.53-2.17,2.29-4.09,7.53-.15,14.29-3,21-6.12,1,2.44,4.08,3.43,4.32,6.63.13,1.77,10.83,4,12.18,2.73a1.91,1.91,0,0,0,.49-1.33c-.17-2.36.67-4.54,1-6.81.27-2,.14-3.68-2.94-2.28-2.27,1-4-.65-5-2.81,3.07-1.79,6.48-1,9.69-.92,8.64.3,16.18-2.58,23.29-7.08v19c-1.81-.3-3.64.33-5.29.63-7.61,1.39-16.6.4-20.24,10-.15.4-.71.95-1.07.94-4.08-.09-5.11,5-9.35,5.3a6.93,6.93,0,0,0-5.25,4.78c-1.05.22-2.15.31-2.87,1.28a9.31,9.31,0,0,1-5.13-1.38c-2-1-5.58-1.71-6.29.39-2.27,6.69-7.95,11.77-8.58,19.2-.28,3.25-1.33,6.43-2,9.65l0,.06c-3.8.13-7.55.27-10.87,2.57-4.21,2.93-7,2.05-8.48-2.95-.77-2.53-1.16-5-4.58-4.57-1.9.24-1.45-2.61-3.28-2.38-1.24,4.79-5.6,8.25-5.6,13.52l-2,.92c-1.72-.14-3.28,0-4,2l-1.86.25c-4.45-.31-8,.79-9.21,5.72a1.6,1.6,0,0,0,0,.92,10.81,10.81,0,0,0-7,5.08C524.57,431.81,522.29,431.81,521.71,434.81Z" transform="translate(-150 -150)"/><path class="cls-4" d="M150.1,379V356c3.18-.52,6.37-1,9.57-1.44,5-.64,9.81.62,14.6.15a15.84,15.84,0,0,1,16.65,10.38c-1.67-.14-2.65-1.28-3.53-2.5-.69-1-1.45-2.24-2.66-1-.93.94.41,1.67.9,2.45q3.39,5.35,6.71,10.76c1.29,2.09.55,4.1-1.66,3.95-3.7-.25-5.71,2.14-8.26,3.82-.15.1-.56-.19-.83-.29-.87-1.48,2.18-2.27.45-4.16-3.91,3.91-8.53,6.87-12.83,10.24-.59.46-.72,1.37-1.81,1.21-6-.91-11.53,1.61-17.3,2.4v-8c2.1-.77,3.8-2.5,6.39-2.16a2,2,0,0,0,2.32-2.54c-.28-1.58-1.75-1.33-2.85-1.22C154,378.3,152.05,378.69,150.1,379Z" transform="translate(-150 -150)"/><path class="cls-4" d="M605.83,382.93c.72-1,1.82-1.06,2.87-1.28.49.08,1.12.39,1.45.19,4.24-2.6,5.16-1,5,3.37-.17,3.43,3.68,5.7,7.06,4.41,1.68-.64,3.29-1.32,5-1.84,4.61-1.38,5.92-5.24,3.52-9.58-.94-1.69,1-1.93,1.06-2.44.23-4.22,3-3.73,5.93-3.93,4.09-.28,8.14-1.18,12.2-1.82v36c-5.34-1.57-10.16.95-15.1,2.12-2.87.69-5.55,2.18-8.63,1.84-2.17-.24-5,.38-4.39-3.48.18-1.17-1.08-1.52-1.92-2-4.15-2.47-4.15-3.12-.08-5.55,1.37-.82,3.75-1.51,3.4-3-.45-1.94-2.59-1.94-4.57-1.35s-3.05-1.12-3.66-2.6c-2-4.69-5.61-5.29-9.7-3.81-2.25.81-4.16.37-6.23,0l-.28-.28c.26-2.34.64-4.38,3.92-3.11C604.09,385.26,605.72,385.18,605.83,382.93Zm30.53,18.49c-3.38-2.31-6.45-.26-9.64-.12a1.4,1.4,0,0,0-1.31,1.76c.3,1.06,1.25.84,2.05.64C630.43,403,633.4,402.18,636.36,401.42Z" transform="translate(-150 -150)"/><path class="cls-3" d="M150.1,392c5.77-.79,11.3-3.31,17.3-2.4,1.09.16,1.22-.75,1.81-1.21,4.3-3.37,8.92-6.33,12.83-10.24,1.73,1.89-1.32,2.68-.45,4.16.27.1.68.39.83.29,2.55-1.68,4.56-4.07,8.26-3.82,2.21.15,2.95-1.86,1.66-3.95q-3.32-5.4-6.71-10.76c-.49-.78-1.83-1.51-.9-2.45,1.21-1.25,2,0,2.66,1,.88,1.22,1.86,2.36,3.53,2.5l1.11,2c.4,3.27,1.07,6.34,5.14,6.88-.66,6.13,4.58,9.37,6.89,14l-2,0c-.93-.93-2.15-1.72-2.71-2.84-1.26-2.51-2.55-2.86-4.33-.6-2.71,3.43-7.1,2.71-10.61,4.23-11.27,4.9-19.12,13.49-26.35,22.92-2.34,3-4.48,6.32-8,8.25Zm42.49-9.48c-1.57-.73-2.81-.81-3.94.13-.12.1,0,.74.16.84C190.1,384.25,191.27,384.08,192.59,382.52Z" transform="translate(-150 -150)"/><path class="cls-5" d="M649.9,370c-4.06.64-8.11,1.54-12.2,1.82-2.92.2-5.7-.29-5.93,3.93,0,.51-2,.75-1.06,2.44,2.4,4.34,1.09,8.2-3.52,9.58-1.74.52-3.35,1.2-5,1.84-3.38,1.29-7.23-1-7.06-4.41.21-4.35-.71-6-5-3.37-.33.2-1-.11-1.45-.19a6.93,6.93,0,0,1,5.25-4.78c4.24-.3,5.27-5.39,9.35-5.3.36,0,.92-.54,1.07-.94,3.64-9.58,12.63-8.59,20.24-10,1.65-.3,3.48-.93,5.29-.63Z" transform="translate(-150 -150)"/><path class="cls-6" d="M150.1,334c7.25-1.8,14.42-3.88,22-4.1,5.8-.17,9,3.72,12.21,7.23,2.21,2.42.13,4.82-2.39,5.86-7.76,3.2-15.58,6.5-24.13,2.51-1.38-.64-2.53.6-3.83.63h-1.86a2,2,0,0,0-2-1.14Z" transform="translate(-150 -150)"/><path class="cls-5" d="M152.11,346.16H154c.35,4.77,5.1,3.86,6.79,3.48,5.82-1.33,11.38.6,17,.22a5.13,5.13,0,0,0,2.37-.38c4.38-2.94,6.83-.93,7.94,3.3a22.92,22.92,0,0,0,5.57,10.65c.83.85.94,2.4,1.37,3.63l-3,0-1.11-2a15.84,15.84,0,0,0-16.65-10.38c-4.79.47-9.63-.79-14.6-.15-3.2.41-6.39.92-9.57,1.44v-9A2,2,0,0,0,152.11,346.16Z" transform="translate(-150 -150)"/><path class="cls-5" d="M216.21,324c-9.09-1.12-18.48.33-27.3-1.35-10.25-1.94-19.09,0-28.11,4.1-3.38,1.52-6.88,3-10.7,3.27v-2c13.06-6.25,26.15-11.07,41.33-8.33,6.81,1.23,14.06.94,21,2.27C214,322.26,216,321.47,216.21,324Z" transform="translate(-150 -150)"/><path class="cls-3" d="M150.1,379c2-.32,3.9-.71,5.86-.92,1.1-.11,2.57-.36,2.85,1.22a2,2,0,0,1-2.32,2.54c-2.59-.34-4.29,1.39-6.39,2.16Z" transform="translate(-150 -150)"/><path class="cls-2" d="M152.11,346.16a2,2,0,0,1-2,.86v-2A2,2,0,0,1,152.11,346.16Z" transform="translate(-150 -150)"/><path class="cls-3" d="M281.12,379.22l9.44-4.7,2.19.49.24,1.11.8.94c4.93,1.22,10.7,4.51,14.8,2.15,8.52-4.92,14.43,1.29,21.41,2.87,1.47-.34,1.77,4.95,4,.83a4.17,4.17,0,0,1,.49-.08c7.48-.41,14,.73,17.3,8.86a9.17,9.17,0,0,0,5,4.52c-.12,1.08,1.94,2.33-.69,3.27-1.66.59-.07,1.24.7,1.59q2.1,6,4.21,11.93c-1.26,2.27-.42,3.86,1.66,5L363,421c-1,3.48-.2,6.76,1,10-1.75,5.66,3.28,8.94,4.73,13.48.86,2.69,3.38,5.78-1.69,7-.06-1.48.15-3.08-1.3-4.08-5.81-4-7.34-9.94-8.17-16.44-.33-2.59-.31-5.74-3.82-6.88-4.59-1.49-5.18-3.78-2-7.29a5,5,0,0,0,.35-6.73c-2.93-3.38-6.25-6.38-8.62-10.28a2.36,2.36,0,0,0-3.87-.05,12.27,12.27,0,0,1-3.13,4.13,1.61,1.61,0,0,0,.78,2.76c2.74.55,2.81,1.56,1.28,3.61-1,1.31-.46,2.75.4,4.16,1.78,2.92,5.44,5.26,6.29,7.61,2.36,6.6,4.88,13.23,6.81,20-1.43,2.75-.31,5,1.4,7.11.61,4.44-2.68,2.22-4.44,2.6-.16-1.48.26-3.63-.56-4.31-5-4.15-3.47-10.58-6-15.86-.74,2.14-1.71,3.86-4.24,3.36.43-3.63-3.18-5-4.41-7.72-1.65-3.67-4.66-6.72-4.74-11.09a3.41,3.41,0,0,0-2-2.72c-5.14-3-9.24-7.29-14.11-12.11,1.29,11.26,1.39,21.82,8.14,30.66-2.91.64-4-1.69-4.68-3.52-4-10.7-13.22-15.67-22.57-20.07a53.24,53.24,0,0,1-9.83-6.36c-8.11-6.26-12.48-15.53-18.74-23.28-.73-.91-2.81-1.9-1.47-3.11s3.11.13,4.11,1.49c1.18,1.59,2.13,3.35,3.17,5,.54.88,1.73,2.11,2.21,1.45C275.32,380.88,279.45,382.23,281.12,379.22Zm8.72,11a2.57,2.57,0,0,1,2.14-2.35c1.16-.33,2.23-1.11,1.48-2.54a1.56,1.56,0,0,0-2.83-.26c-1.49,2-3.72-.44-5.47,1,.78,1.47,2,2.5,2,4.09a1.72,1.72,0,0,0-.12.95l-4.1.1c.4-5.43-5-1.89-6.79-5.71-.07,4.09.51,6.27,3.18,7.41,2.49,4.06,6.44,6.75,9.59,10.18,1,1.12,2.26,1.93,3.92,1.45.77.34,1.63.54,1.79-.55s-.68-1.62-1.66-1.88l-.63-3c.63-.12,1.31-.39,1.21-1.09-.17-1.07-1.08-.83-1.84-.75-.2-.32-.4-.63-.58-.95C292.83,393.81,292,391.86,289.84,390.19Zm57.05.59c0-3.14-1.46-3.72-3.5-3.77-1.64,0-3.27-.19-4.9-.36-.85-.09-2-2.16-2.4.27-.24,1.4.72,2.07,2.11,2.09C341.06,389.07,344,388.48,346.89,390.78Zm-17.41,12.71c0-1.34-.86-1.54-1.66-1.38-1.9.38-4.18.66-4.32,3.12-.08,1.43,1.66,2.17,2.86,2.24C329.19,407.62,327.28,403.86,329.48,403.49Zm-38.85-24.35-7.76,3.29C288.81,383.17,288.81,383.17,290.63,379.14Z" transform="translate(-150 -150)"/><path class="cls-6" d="M585.92,359c.24,1.92,1.76,4.47-2.29,4.09-1.87-.17-2.82.31-1.62,2.59,1.63,3.12-2.1,6.24-.47,9.54,0,0-1.07.69-1.17.6-3.06-3.08-5.36,1.17-8.33.88-3.67-.37-6.2,2-6,6.12.07,1.9-.56,3.54-2.46,3.75-3.4.38-3.91,2.39-3.58,5.17.28,2.38-.24,4.09-3,4.82-3.94,1.07-4.8,4.92-5.92,8a29.34,29.34,0,0,1-7.7,11.34c-1.65,1.57-3,3.79-6.23,1.63-1.8-1.23-3.66,1.48-5.46,2.39-2.51,1.26-4,3.93-6.89,5.08-.9.36-1.16,4.11-3.15,5.81-3.49,3-6.26,3-9.38-.35-1.46-1.6-2.91-3.14-5.2-3.49,0-1.94,1.31-2.19,2.83-2.68a40.73,40.73,0,0,0,14.84-9,10.08,10.08,0,0,0,4.29-6.23c3.5-4.45,6-9.88,11.81-12.07,3.92-2.47,7.42-4.18,7-10.65-.26-4.41-1.79-3.11-3.8-3.34-3-.35-4.3,2-4.92,4.05-1.13,3.79-4.4-2.5-5.17,1.35a1.21,1.21,0,0,1-.17.46c-.79,1.11-1.81,2.3-3.2,1.5s1.64-2.07-.1-3.42c-2.89,3.11-5.8-.81-8.93,0-3.94,1-6.21-1.3-8-5,1.62,0,3.08.37,4.21-.07,3.62-1.41,8.65-.46,10.08-5.73,5.55-5.49,12.37-8.21,20-9.19,5.4,2.19,8.61,1.38,11-2.77C567.06,358.3,576.51,358.74,585.92,359Zm-36.26,21.42-.36.83c.28.12.62.39.82.31s.26-.51.38-.79Z" transform="translate(-150 -150)"/><path class="cls-4" d="M281.12,379.22c-1.67,3-5.8,1.66-7.78,4.4-.48.66-1.67-.57-2.21-1.45-1-1.69-2-3.45-3.17-5-1-1.36-2.65-2.8-4.11-1.49s.74,2.2,1.47,3.11c6.26,7.75,10.63,17,18.74,23.28a53.24,53.24,0,0,0,9.83,6.36c9.35,4.4,18.56,9.37,22.57,20.07.68,1.83,1.77,4.16,4.68,3.52,2.4,3.54,2.42,7.23.7,11-3.77.59-7.11,1.85-8.77,5.7-1.17-.85-2.76-.44-3.95-1.57-2.93-2.8-5.59-1.33-8.1.85-2.25-2.21-5-2.28-7.94-2.05-.15-.44-.3-.88-.46-1.32a2.67,2.67,0,0,0-.36.28c.23.38.49.75.74,1.12-.4,1.66,2.94,4.07-1,5-3.81-5.64-3.75-10,.19-14.1a30.3,30.3,0,0,0,5,1.49c2.95.37.85-1.42.84-2.31l1.57-.23c1.75.33,2.72,2.39,4.73,2.1,2.26,1.09,4.39,2.24,4.79,5.14.31,2.29,1.48,1.39,2.76.69,5.64-3.1,5.88-5.21,1.19-11.65L312,428.56c-4.88-9.57-12.37-15.95-22.86-18.65l-4-2c.09-2.31-.89-3.32-3.24-2.69l-2.65-.46c-4.77-6.76-11.38-12-15.84-19l-1.19-1.93c.17-1.94-.9-3.5-1.66-5.13a11.3,11.3,0,0,1-.38-9.08c.43-1.14,1.29-2,2.06-1.3,2.43,2.31,4.52,2.58,6.81-.08.22-.25,1.46-.06,1.8.32,1.81,2,3.61.79,5.42.15,1.15.07,2.31.09,3.45.2,2.69.25,3.22,2.22,1.74,3.69-2.05,2-3.31,5.27-7.54,5.17C276.57,379.76,279,378.51,281.12,379.22Z" transform="translate(-150 -150)"/><path class="cls-3" d="M426.39,345.38c3.2,3.16,6.92,2.73,11.87-1.44a36.62,36.62,0,0,0,5.44-5.76c.7-.93,1-1.69,2.15-.9.78.55,1.48,1.17,1.06,2.45-1.33,4-11.67,12.07-16.17,12.43-7.61.62-10.5-3.85-8.18-12.61-4.56-1.45-7.48-.39-8.17,4.88-.54,4.16-1.62,8.26-2.19,12.42-.21,1.59-.47,2.35-2.27,2.35s-2-1-2.11-2.49c-.21-3.8,2.12-7.11,2-11.26-3.68,2.35-6.11,7.25-11.27,5.48-2.14-.73-3.21-2.76-2.63-5.46-3.07,1.13-3.53,4.56-6.38,5.83-3.84,1.72-6.8.75-7.67-3.39-1.93-9.14,5-16.5,14.07-14.48,2.14.48,4.85-2.57,5.87.39.6,1.74-1.15,4.22-1.61,6.42a23.92,23.92,0,0,0-.08,4c-.07,2.76,2.11,2.73,3,1.49,1.48-2,6.44-2.31,3.87-6.81-.27-.48.55-3,1.92-2.89,3.72.28,3.59-2.17,4.22-4.65,1.42-5.62,5.79-8.83,10.64-8.52,1.49.09,2.69.47,3.21,1.8a2.56,2.56,0,0,1-.66,2.74c-1.44,1.52-2.25.33-3.27-.51-1.78-1.46-3.31-.75-3.87,1.11-.73,2.49-3.7,5.59-1.38,7.38,1.83,1.43,5.8,1.58,8.38-.4a11.28,11.28,0,0,1,7.33-2.13A4.23,4.23,0,0,1,438,336a4.69,4.69,0,0,1-1.57,5.35C433.55,343.57,430.19,344.49,426.39,345.38ZM386.13,345a2,2,0,0,0,1,2.31,2.24,2.24,0,0,0,2.06-.52c2.24-2.7,4.42-5.46,6.42-8.34.76-1.1-.6-1.06-1.25-1.41C390.52,334.9,386.33,338.58,386.13,345Zm47.54-8.31c-3.07-.2-5.42.74-6.55,3.85C431,341.77,432.16,339,433.67,336.69Z" transform="translate(-150 -150)"/><path class="cls-6" d="M494,384l4.08-2.84c.26,4.89,3,2.48,5.14,1.72,2.61-.93,8.75,1.06,8.66,3.15-.32,7.53,3,14,5.39,20.79,1,2.88-1.22,1.91-2.4,2.25l-10.43-8.49a10.69,10.69,0,0,0,0,1.84c1.19,5,.25,6.32-4.86,6.81a2.7,2.7,0,0,0-2.52,2l-1.67-.57a2.92,2.92,0,0,0-2.23-1.87c-.06-.78-.08-1.57-1-1.91l-.3-1.81c-1-1.83-2.3-3.57-2.15-5.84-1.26-3.93.4-7.55,1.22-11.26C491.8,386.54,495.22,387.07,494,384Z" transform="translate(-150 -150)"/><path class="cls-4" d="M352.09,442.06c-1.93-6.78-4.45-13.41-6.81-20-.85-2.35-4.51-4.69-6.29-7.61-.86-1.41-1.38-2.85-.4-4.16,1.53-2,1.46-3.06-1.28-3.61a1.61,1.61,0,0,1-.78-2.76,12.27,12.27,0,0,0,3.13-4.13,2.36,2.36,0,0,1,3.87.05c2.37,3.9,5.69,6.9,8.62,10.28a5,5,0,0,1-.35,6.73c-3.17,3.51-2.58,5.8,2,7.29,3.51,1.14,3.49,4.29,3.82,6.88.83,6.5,2.36,12.48,8.17,16.44,1.45,1,1.24,2.6,1.3,4.08a11.3,11.3,0,0,1-12-3.85C354.32,445.69,355,442.91,352.09,442.06Z" transform="translate(-150 -150)"/><path class="cls-2" d="M514.83,409.06c1.18-.34,3.42.63,2.4-2.25-2.41-6.76-5.71-13.26-5.39-20.79.09-2.09-6-4.08-8.66-3.15-2.12.76-4.88,3.17-5.14-1.72,6.7-.68,13.39-1.46,20.1-2,3.5-.29,6-3.55,9.72-3-1.43,5.27-6.46,4.32-10.08,5.73-1.13.44-2.59.07-4.21.07,1.81,3.71,4.08,6.05,8,5,3.13-.82,6,3.1,8.93,0,1.74,1.35-1.38,2.57.1,3.42s2.41-.39,3.2-1.5a1.21,1.21,0,0,0,.17-.46c.77-3.85,4,2.44,5.17-1.35.62-2.09,1.89-4.4,4.92-4.05,2,.23,3.54-1.07,3.8,3.34.38,6.47-3.12,8.18-7,10.65-.83-1.64-1.29-3.74-3.9-3.27-3.43-4.06-4-.31-5.19,1.88l-1.8.22c-1.48-2.88-4.45-1.37-6.62-2.22-2.45-1-5.16-1.35-6.55,1.31s-.41,5.24,1.76,7.3l1.26,2a2.54,2.54,0,0,0,1.49,2.05l.56,1.86c.06,2.07-2.51,2.07-3,3.74C516.75,412.08,515.14,411.51,514.83,409.06Zm10.72-19.34-.85-.37c-.12.29-.4.63-.32.83a.86.86,0,0,0,.79.34C525.37,390.44,525.43,390,525.55,389.72Z" transform="translate(-150 -150)"/><path class="cls-4" d="M517,466.92c6.46-1.38,10.86-5.74,15.18-10.68,1.3,2.23-1,4.18-.2,6.15-3.23,3.73-4.93,8-6.55,12.77a216.19,216.19,0,0,0-7.69,27.27c-.49,2.52-2.51,3.21-4.79,3.36-.08-1.13.09-2.39-1.36-2.88l.46-2.84c.73-.16,1.65-.27,1.47-1.26-.08-.41-.84-.71-1.28-1.05l-.09-3.8c1.34-1.51.82-2.52-.85-3.23.75-3.17-5.31-4-3.11-6.58,1.82-2.16,3.75-4.69,6.37-6.26.26-.15.42-.48.63-.73C518.72,474.25,518.13,470.63,517,466.92Z" transform="translate(-150 -150)"/><path class="cls-2" d="M512.19,494c0,1.26.06,2.53.08,3.8l-.18,2.31c-.15.94-.31,1.89-.46,2.84-2.13,1.63-4.26,3.43-6.51.17-.22-8.13-2.76-16.22.25-24.4,2.3-6.23,1.52-13,2.48-19.47,3.68-3.39,7.58-6.52,11-10.21,2.29-2.47,5.52-3.86,8.81-4.85-.3,1.93-.59,3.87-.88,5.8-5.29-.43-5.32-.4-4.08,5.75a7.76,7.76,0,0,0-1.78.79c-1.48,1.2-2.71-2.45-3.62-.46-1,2.25,1.77,2.64,2.91,3.84a9.5,9.5,0,0,1,.84,1.2l-.06,1.05-3,.14a39.16,39.16,0,0,1-4.87-.74c-2.7-.75-2.21,1-2.09,2.47-.74.16-2,.07-1.56,1.22s1.62.66,2.55.61l0,0c-1.29,4.4-3.2,9,3.1,11.31-.21.25-.37.58-.63.73-2.62,1.57-4.55,4.1-6.37,6.26-2.2,2.62,3.86,3.41,3.1,6.58C511,492,510.74,493.19,512.19,494Z" transform="translate(-150 -150)"/><path class="cls-2" d="M492.21,456.15c-1.82,2.91-4.73,1.49-7.2,1.83l-2.14-.17c.4-1.76-.75-2.57-1.95-3.52-1.44-1.15-2.86-4.11-2.42-4.45,4.21-3.25.41-5.85-.35-8.66,5,.06,9.94-.18,14.59-2.29l.56.41-.44-.55c-3.06-3.48.51-5,2.07-7.18l2.82-.84a21.4,21.4,0,0,1,1.09,2.2c2.53,6.75,3.45,7.22,9.75,5a8.33,8.33,0,0,1,2-.17,2.92,2.92,0,0,1-1.85,2.71c-3.08,1.32-3.76,3.4-2.81,6.43a10.4,10.4,0,0,1,0,2.95l-1.1,1L498,452c.6-.77,1.2-1.53,1.78-2.32,1.23-1.68,5.15-2.69,3.3-5s-4.38.19-6.21,1.86a3.92,3.92,0,0,1-.86.46c-6.66,1.33-7.72,2.59-6,7.11C490,455.52,491.05,455.92,492.21,456.15Z" transform="translate(-150 -150)"/><path class="cls-5" d="M269.18,339.87c-6.7-1.38-13.83-1.31-19.58-5.84a1.81,1.81,0,0,0,1.47-1.41,2.79,2.79,0,0,1,0-.58,241.65,241.65,0,0,1,37,2.14c.31,1.85,1.52,2.29,3.22,2.12,7.18-.71,12,3,16,8.46-.15.17-.3.32-.46.47-1.16-.15-2.28-.19-3.06.91-3-.41-6.19.67-8.91-1.39.07-1.19.1-2.41-1.54-2.54-7.55-.59-14.69-3.14-22.07-4.54C268.92,337.23,269.23,338.55,269.18,339.87Z" transform="translate(-150 -150)"/><path class="cls-4" d="M363,383.06l-2-.08c.68-3.23-2.4-5.24-2.62-8.25-.35-4.78-2.07-5.72-7.43-4.51l-2.92-.06c-2.76-1.77-6.09-1.92-9-3.13l-2-.95a12.79,12.79,0,0,0-7.23-3.82c-3.08-.43-5.21-1.6-6.75-4.15V355c10.09-1,17.85,5.32,26.7,8.26,7.28,2.41,13.23,5.9,16.48,13.09-.4.9-.81,1.79-1.21,2.67C362.22,379.32,363.21,381.48,363,383.06Z" transform="translate(-150 -150)"/><path class="cls-5" d="M356.84,401.07c-.77-.35-2.36-1-.7-1.59,2.63-.94.57-2.19.69-3.27,1.5-.79,1.87-5.39,4.31-2.26,2.73,3.5,6.52,2.82,9.72,4.24,2.64,1.17,3.63-1.43,5.34-2.4a3,3,0,0,1,2.56,2.66c.69,4.4,3.35,7.53,6.3,10.53-2.8,2.22-2.37,4,.75,5.39,1.44.66,2.81,1.5,1.72,3.37-1,1.68-2.39,1.28-3.9.63-5.52-2.39-11-4.72-11.69-11.9a2.7,2.7,0,0,0-3.13-2.52c-2,.08-1.74,1.6-1.73,2.92-2.42-1.16-3.89-3.39-5.82-5.1C359.92,400.59,358.68,399,356.84,401.07Z" transform="translate(-150 -150)"/><path class="cls-6" d="M441.93,388.11c2-1,3.18-3.82,6.11-3,0,1.54,1.09,1.78,2.32,2,1.53.27,2,1.56,1.1,2.53-1.76,1.85-2.43,4.62-5.33,5.56-4.13,1.33-8.12,3.08-12.17,4.65l-3,0c.1-1.69-.32-2.91-2.36-2.88-1.54,0-2.11.42-2.31,2.24s-2.51,2.66-4,3.88c-2,1.66-5.12,1.06-6.49,3.65L413,407c-1.88-2.31-6.65-.59-7-5h.2c5.28-2.25,11.25-2.89,15.81-6.81,5.62-.45,11.22-1,16.49-3.19A5.24,5.24,0,0,0,441.93,388.11Z" transform="translate(-150 -150)"/><path class="cls-3" d="M425,366.32c0,1.73-1.62,3.27-.67,5.14,2.58-1,5.08-2.24,5.46-5.5.06-.56,1.39-1.22,0-1.84-1.74-.78-2.91-2.47-1.44-3.77,1.11-1,3.34.39,5.24-.07.62-.15.46,2.44,0,3.91a31.77,31.77,0,0,0-1.15,8.16c.28-3.73,9.05-4.27,3.46-10.26-.5-.54-.28-2.24,1.12-2.12s3.39-1.29,4.07,1.36c.41,1.62-2,5.2,3.16,3.92,1.57-.39-.46,1.94-.87,3.06-.31.83-3.18.41-1.1,2.45,1.58,1.55,2.37.88,3.58-.34s1.58-4.58,3.45-3.24c2.11,1.52-.66,3.83-1.54,5.36-2.42,4.2-5.54,3.06-8.35-.21-.63,3.49-.63,3.48-3.71,1.85-1-.52-.92.7-1.47,1-3.18,1.69-5.24,1.33-5.73-2.84-2.3,2.12-4.37,4.47-7.62,1.53-1.22-1.11-1.7.88-2.5,1.41-2.92,1.93-4.27.66-4.57-2.26C413.31,367.46,417.06,365.21,425,366.32Z" transform="translate(-150 -150)"/><path class="cls-4" d="M514.83,409.06c.31,2.45,1.92,3,4.07,2.81a3.92,3.92,0,0,1,2.07,2.35c-1.2,2.56-4.14,2.45-6.15,3.73-4.84,3.09-9.43,7.13-15.74,7.09.87-1.42,1-3.32,2.87-4.05,3.47,1,2.25-2.6,3.47-3.81.94-.93-1-1.93-2.36-2.18a9.86,9.86,0,0,1-6-3.79,2.7,2.7,0,0,1,2.52-2c5.11-.49,6.05-1.82,4.86-6.81a10.69,10.69,0,0,1,0-1.84Z" transform="translate(-150 -150)"/><path class="cls-2" d="M550.85,487.09c2.5,5.08-.64,9.37-1.94,13.92-6.76,2.36-8.53,1.72-10.75-4.47-1.22-3.4-4.22-6.53-2.12-10.62,3.82.48,6.26-2,8.88-4.13l2.62.5C548.25,484.16,548.07,486.64,550.85,487.09Z" transform="translate(-150 -150)"/><path class="cls-4" d="M544.92,481.79c-2.62,2.11-5.06,4.61-8.88,4.13.08-.95.17-1.9.25-2.85,2.56-.58,3.8-2.64,3.17-4.74-1.17-3.85-.72-6.24,3.58-7.21.76-.18,1.29-1.39,1.92-2.12h0c4.36-.4,5.45-2.67,3.86-8.09l.57-3c2,.34,3.38,1.82,5.35,2.4,3.31,1,3,8-.83,10.94-2.58,1.92-3.37,3.36-2.67,6.55.75,3.4-1.92,1.81-3.47,1.57C545.89,479.08,543.16,477.79,544.92,481.79Z" transform="translate(-150 -150)"/><path class="cls-4" d="M443,409.65c-7.68,1.9-15.23,4.37-23.32,4.21-2.81-.05-5.43-.24-7.82-1.79,1.53-1.87,3.81-.41,5.43-1.15,2.76-1.26,7.88,1.08,7.76-4.8l2.78-1.28c2.48.53,3.36-.57,3-2.94l0-.06c6.69,2.57,13.44.47,20.16.23-.55,1.19,1.48,4.5-2.75,2.88C447.41,404.62,443,406.07,443,409.65Z" transform="translate(-150 -150)"/><path class="cls-3" d="M443,409.65c0-3.58,4.37-5,5.24-4.7,4.23,1.62,2.2-1.69,2.75-2.88l2.06-1a19.88,19.88,0,0,1,7.81.95c1.05,1.32,2.62.84,4,1.16.35.52.8,1.53,1,1.48,5.66-1.21,10.72,2.12,16.37,2.27,3.23.08,6.52,1.46,9.89-.1.91.34.93,1.13,1,1.91l-.15,2.09c-9.81.95-19.12-1.88-28.57-3.77-3.83-.76-7.42.81-11.07,1.65C449.94,409.52,446.56,410.24,443,409.65Zm14-6.34c-.25.15-.64.26-.7.46a.85.85,0,0,0,.29.76.6.6,0,0,0,.93-.57C457.56,403.75,457.23,403.54,457,403.31Z" transform="translate(-150 -150)"/><path class="cls-3" d="M369.73,354.18c-6.19-.05-9.29-2.69-8.88-5.82a2.83,2.83,0,0,1,1.64-2.32c1.36-.6,1.53.7,1.93,1.56a5.67,5.67,0,0,0,2.92,3,4.73,4.73,0,0,0,5.37-1.3c1.34-1.32,1.32-3-.48-4.55-.89-.75-1.28-1.93-2.53-2.7-3.79-2.34-5.84-5.91-4.61-10.43.91-3.33,7.11-5.59,11.51-4.73,1.31.25,2.24.84,2.45,2.06a3.86,3.86,0,0,1-.34,2.83c-1,1.2-2.21-.26-3-.71-2.45-1.46-4.39-1.24-6,1-1.79,2.51.8,3.43,1.92,4.85a5.21,5.21,0,0,0,1.41,1.4c4.24,2.32,6.29,5.93,4.7,10.49C376.21,353.2,372,354.05,369.73,354.18Z" transform="translate(-150 -150)"/><path class="cls-4" d="M593.89,452.76a2.69,2.69,0,0,0-2.34-2.71c-3.62.33-3.94-3.09-5.62-5,4.63,1.45,8.62-3,13.42-1.31,2.18.77,3.09-1,1.93-2.93-1.92-3.28-.43-4.54,2.66-4.8,1.64-.14,2.56-1.51,4-1.86,1.11-.28,2.46-.61,3.27.37,1.62,2,2,2.2,4.68,1.4C607.93,440.77,603.73,450.45,593.89,452.76Z" transform="translate(-150 -150)"/><path class="cls-3" d="M385.06,409c-2.95-3-5.61-6.13-6.3-10.53a3,3,0,0,0-2.56-2.66l-2.5-4.37c.21-2.14-.22-3.9-2.68-4.42l-1.14-1.87c.18-1.4-.51-2.05-1.85-2.14l-3-4c.4-.88.81-1.77,1.21-2.67,6,7.5,14.1,13.43,17.38,23,1.78,5.17,5.89,9,8.34,13.74-1.75,1.59-3.4,1.12-4.51-.63C386.68,411.27,386.67,409.61,385.06,409Z" transform="translate(-150 -150)"/><path class="cls-6" d="M616.92,349c1,2.16,2.71,3.85,5,2.81,3.08-1.4,3.21.26,2.94,2.28-.31,2.27-1.15,4.45-1,6.81a1.91,1.91,0,0,1-.49,1.33c-1.35,1.25-12-1-12.18-2.73-.24-3.2-3.29-4.19-4.32-6.63C610,351.14,613,348.86,616.92,349Z" transform="translate(-150 -150)"/><path class="cls-5" d="M202.08,388l2,0c2.23.89,2.71,3.24,3.87,4.93,4.12,6.06,10.24,5.05,16.13,5.07,2.33,0,2.78,2.61,4.7,3.34,3.65,1.39,3.46,3.81,1.34,6.52-4.84-.6-9.49-1.35-13.53-4.69C211.12,398.66,205.17,394.75,202.08,388Z" transform="translate(-150 -150)"/><path class="cls-4" d="M385.06,409c1.61.63,1.62,2.29,2.37,3.48,1.11,1.75,2.76,2.22,4.51.63.75.12,1.21.48,1.12,1.32a3.3,3.3,0,0,0,1.37,3.08c-5.55,6.53-11.51,4.82-18.38,0-3.54-2.5-5.65-6.08-8-9.5l-.91-1-.05-.06c0-1.32-.24-2.84,1.73-2.92a2.7,2.7,0,0,1,3.13,2.52c.66,7.18,6.17,9.51,11.69,11.9,1.51.65,2.92,1.05,3.9-.63,1.09-1.87-.28-2.71-1.72-3.37C382.69,413,382.26,411.2,385.06,409Z" transform="translate(-150 -150)"/><path class="cls-2" d="M434,399.84c4.05-1.57,8-3.32,12.17-4.65,2.9-.94,3.57-3.71,5.33-5.56.92-1,.43-2.26-1.1-2.53-1.23-.21-2.29-.45-2.32-2,3.35-.36,6.79.46,10.06-.8,0,.85,0,1.69,0,2.54-2.81,2-1.29,4,0,6-2,0-3.29.7-3.28,2.92-4.86,2.94-10.45,3.47-15.81,4.74C437.2,400.94,435.42,401.66,434,399.84Z" transform="translate(-150 -150)"/><path class="cls-4" d="M303.75,346.14c.78-1.1,1.9-1.06,3.06-.91a14.55,14.55,0,0,0,1.06,1.39c.07.07.69-.17.73-.34.23-1-.63-1.23-1.33-1.52-3.92-5.47-8.78-9.17-16-8.46-1.7.17-2.91-.27-3.22-2.12,11.89-1.53,19.92,4.23,26,13.75,0,1.6.07,3.19.1,4.79-1.31,1-2.65,1.38-4.11.29a1.75,1.75,0,0,0-2-1.06l.06,0C308.18,348.9,304.45,348.65,303.75,346.14Z" transform="translate(-150 -150)"/><path class="cls-5" d="M458.08,386.84c0-.84,0-1.68,0-2.53,7.41-2.14,15-1.74,22.4-.62,4.56.69,8.94,1.29,13.46.3,1.26,3.08-2.16,2.55-3,4l-3.05.22c-3.75,0-7-2.57-10.83-2.05a33.09,33.09,0,0,0-15,.85C460.7,386.92,459.35,388.13,458.08,386.84Z" transform="translate(-150 -150)"/><path class="cls-4" d="M338.25,435c2.53.5,3.5-1.22,4.24-3.36,2.53,5.28,1,11.71,6,15.86.82.68.4,2.83.56,4.31C340.33,449.69,338,446.09,338.25,435Z" transform="translate(-150 -150)"/><path class="cls-3" d="M499.08,425c6.31,0,10.9-4,15.74-7.09,2-1.28,4.95-1.17,6.15-3.73a3.52,3.52,0,0,1,3.77,1.08,40.73,40.73,0,0,1-14.84,9c-1.52.49-2.87.74-2.83,2.68l-2.14.09a8,8,0,0,0-7.18,3.64l-2.82.83c0-.85,0-1.7,0-2.56Z" transform="translate(-150 -150)"/><path class="cls-4" d="M615.89,435.94c0-1.45-1.73-1.58-2.08-2.3-.76-1.58-4.74-1-2.93-3.92,1.4-2.27,1.27-5.38,6.23-5.21,5.86.2,7.22,1.13,4.78,6.36C620.74,433.56,618,434.32,615.89,435.94Z" transform="translate(-150 -150)"/><path class="cls-2" d="M549.4,457.91l-.57,3c-1.29.53-4.77,0-3.32,1.9,2.15,2.88-.85,4.17-.54,6.19h0c-2.14-.21-4.87.82-5.22-2.89-.11-1.19-1.52-1-2.5-1-.24-2.72,2.57-5.57-.33-8.18.88-3,2.12-2.1,3.44-.32-.29,1.06-1,2.54.48,2.89s2.79-.59,3.21-2.28C545.88,457,547.75,456.64,549.4,457.91Z" transform="translate(-150 -150)"/><path class="cls-5" d="M270,416c3,.36,5.83.8,7.6,3.83.87,1.5,3.35,2.24,4.38,1.69,3.45-1.83,4.05,1,3.79,2.58-.65,4,4.43,4.5,4.18,7.95l-1.77,0L270,417.58Z" transform="translate(-150 -150)"/><path class="cls-5" d="M537.24,465.09c1,0,2.39-.17,2.5,1,.35,3.71,3.08,2.68,5.22,2.89-.63.73-1.16,1.94-1.92,2.12-4.3,1-4.75,3.36-3.58,7.21.63,2.1-.61,4.16-3.17,4.74C533.39,476.91,536.62,471.07,537.24,465.09Z" transform="translate(-150 -150)"/><path class="cls-3" d="M413.79,361c.8,0,1.34.31,1.28,1.11-.08,1.05.69,2.82-.86,2.93-5.6.39-6.09,4.61-6.91,8.66-.25,1.24-.07,2.86-2.13,2.44-2.42-.5-1.5-2.6-1-3.53.82-1.61.6-3.18.74-4.77.05-.53,1.06-2-.52-1.29s-2.49.9-2.47-1.15c0-1.54,1-2.26,2.51-2.5C407.56,362.36,411.23,364.34,413.79,361Z" transform="translate(-150 -150)"/><path class="cls-5" d="M425.09,406.12c.12,5.88-5,3.54-7.76,4.8-1.62.74-3.9-.72-5.43,1.15-1.95,0-3.89.05-4.94-2.07.47-2.7,2.56-2.58,4.31-2,1.36.43,1.67.27,1.72-1l2.88-.21C419,407.12,421.94,405.23,425.09,406.12Z" transform="translate(-150 -150)"/><path class="cls-4" d="M478.15,441.18c.76,2.81,4.56,5.41.35,8.66-.44.34,1,3.3,2.42,4.45,1.2.95,2.35,1.76,1.95,3.52A14.94,14.94,0,0,1,477,453.4c-3.82-4.27-3.77-7.44.27-12.25l.45.09Z" transform="translate(-150 -150)"/><path class="cls-5" d="M478.15,441.18l-.44.06-.45-.09c6.79-2.75,12.13-7.6,17.69-12.15,0,.86,0,1.71,0,2.56-1.56,2.15-5.13,3.71-2.07,7.19l-.13.14C488.09,441,483.14,441.24,478.15,441.18Z" transform="translate(-150 -150)"/><path class="cls-4" d="M230.1,407.86c2.12-2.71,2.31-5.13-1.34-6.52-1.92-.73-2.37-3.33-4.7-3.34-.26-1.19-.52-2.38-.88-4,5.63,1.69,7.75,7.45,12.87,8.83,1.11,1.74,1.37,3.48,0,5.22Z" transform="translate(-150 -150)"/><path class="cls-2" d="M441.93,388.11a5.24,5.24,0,0,1-3.45,3.83c-5.27,2.15-10.87,2.74-16.49,3.19,0-.3-.07-.59-.09-.89,1.89-1.88,4.29-2,6.77-2.46C433.16,391,437.52,389.37,441.93,388.11Z" transform="translate(-150 -150)"/><path class="cls-3" d="M314.15,352.72c0-1.6-.07-3.19-.1-4.79,2.25,1.89,4.15,4.23,7,5.39l1,.71,1,1v3.12C319.34,357.52,315.83,356.62,314.15,352.72Z" transform="translate(-150 -150)"/><path class="cls-5" d="M292,451.05c3.95-1,.61-3.37,1-5l.08-.08c2.89-.23,5.69-.16,7.94,2.05a20.76,20.76,0,0,0-1.7,2.31C296.79,455,295.72,455.13,292,451.05Z" transform="translate(-150 -150)"/><path class="cls-3" d="M239.08,401.89c2.87,5.15,9,4.9,13.16,7.86-.06.4-.11.79-.17,1.19-4.19.48-7.68-2.75-11.88-2.24-.61-1.84-1.37-3.65-1.18-5.66Z" transform="translate(-150 -150)"/><path class="cls-5" d="M421.9,394.24c0,.3.05.59.09.89-4.56,3.92-10.53,4.56-15.81,6.81,0-1.13-.31-3,.93-3.05C412.47,398.58,416.51,394.26,421.9,394.24Z" transform="translate(-150 -150)"/><path class="cls-4" d="M247.26,331.14c0,.87-.56,2.09-1.25,1.69-4.83-2.83-11.54-2-14.92-7.61l2.76.18,1.24.52c4.07,1.18,7.61,3.76,11.86,4.45A1,1,0,0,0,247.26,331.14Z" transform="translate(-150 -150)"/><path class="cls-3" d="M497,411.21a9.86,9.86,0,0,0,6,3.79c1.35.25,3.3,1.25,2.36,2.18-1.22,1.21,0,4.85-3.47,3.81,1.39-1.79,1.51-3.21-1-4.06-2.8-.95-4.94-2.89-7-4.88l1.45-1.41Z" transform="translate(-150 -150)"/><path class="cls-4" d="M252.07,410.94c.06-.4.11-.79.17-1.19,6.34.93,12.48,2.43,17.8,6.26l0,1.57C264.35,414.5,257.9,413.54,252.07,410.94Z" transform="translate(-150 -150)"/><path class="cls-2" d="M413,407c-.05,1.27-.36,1.43-1.72,1-1.75-.55-3.84-.67-4.31,2-5-3.76-5.22-5.23-1-8.05C406.34,406.38,411.11,404.66,413,407Z" transform="translate(-150 -150)"/><path class="cls-3" d="M288.22,432.08l1.77,0,8,4.07c0,.89,2.11,2.68-.84,2.31a30.3,30.3,0,0,1-5-1.49C290.67,435.48,287.88,435.05,288.22,432.08Z" transform="translate(-150 -150)"/><path class="cls-3" d="M313.07,448.71c1.66-3.85,5-5.11,8.77-5.7C320.39,447.17,318,449.86,313.07,448.71Z" transform="translate(-150 -150)"/><path class="cls-5" d="M239,403c-.19,2,.57,3.82,1.18,5.66-1.66.3-.52,3.24-2.45,2.9-1.72-.3-1.67-2.08-1.69-3.53,1.37-1.74,1.11-3.48,0-5.22a4,4,0,0,1,.18-1Z" transform="translate(-150 -150)"/><path class="cls-2" d="M558.83,364.19c-2.36,4.15-5.57,5-11,2.77Z" transform="translate(-150 -150)"/><path class="cls-5" d="M505.12,503.08c2.25,3.26,4.38,1.46,6.51-.17,1.45.49,1.28,1.75,1.36,2.88-2.4.24-4.08,3.86-7.36.76C503.93,505,505.16,504.22,505.12,503.08Z" transform="translate(-150 -150)"/><path class="cls-4" d="M364.06,431c-1.22-3.25-2.05-6.53-1-10C366.31,424,365.17,427.51,364.06,431Z" transform="translate(-150 -150)"/><path class="cls-5" d="M352.09,442.06c2.93.85,2.23,3.63,3,5.62l-1.6,1.49C351.78,447.05,350.66,444.81,352.09,442.06Z" transform="translate(-150 -150)"/><path class="cls-4" d="M362.71,418c-2.08-1.18-2.92-2.77-1.66-5A8.12,8.12,0,0,1,362.71,418Z" transform="translate(-150 -150)"/><path class="cls-4" d="M495.36,410.64l-1.45,1.41-.93-1.19.15-2.09A2.92,2.92,0,0,1,495.36,410.64Z" transform="translate(-150 -150)"/><path class="cls-3" d="M394.43,417.49a3.3,3.3,0,0,1-1.37-3.08C394.52,415,395.23,415.9,394.43,417.49Z" transform="translate(-150 -150)"/><path class="cls-5" d="M250.46,332c-1,.14-2,.14-2.41-1Z" transform="translate(-150 -150)"/><path class="cls-5" d="M247.26,331.14a1,1,0,0,1-.31-.77l1.18.62A5.11,5.11,0,0,1,247.26,331.14Z" transform="translate(-150 -150)"/><path class="cls-5" d="M367.13,406.93l.91,1Z" transform="translate(-150 -150)"/><path class="cls-2" d="M235.09,325.92l-1.24-.52A.9.9,0,0,1,235.09,325.92Z" transform="translate(-150 -150)"/><path class="cls-4" d="M322,354l-1-.71C321.68,353.08,321.89,353.49,322,354Z" transform="translate(-150 -150)"/><path class="cls-6" d="M234.93,391.14c.8-3.77-3-4.5-4.57-4.64-5.59-.53-9.17-4.42-13.14-7.28-3.78-2.73-7.8-5.66-10.09-10.08a4,4,0,0,0-2.58-2.11c-3.66-1.12-8.54-8.66-8.46-12.71s2.28-7.59,1.26-11.68c-.3-1.23,1-1.58,2-1.55,1.74.06,3.88-.74,4.84,1.49,1.68,3.88,4.81,4.7,8.57,4.47,2.64-.16,3.94,1.19,5.33,3.48,2.59,4.25,4.39,9.41,10.24,10.86,3.51.87,4.86,4.22,6.33,7.14,3.25,6.45,7.52,11.41,15.23,12.68,4.87.81,4.87,5.54,5.79,9.18.23.92-.67,2.39.3,3.22,3.14,2.68.6,4.65-.78,6.63-1.87,2.7-4.17,1.59-6.65.67-3.53-1.31-6.91-2.52-7.54-6.9-.57-4.05-3.22-3.72-6.1-2.87Z" transform="translate(-150 -150)"/><path class="cls-6" d="M239.42,339.89c4.81.47,8.25,4.58,13,5.16,4,.49,5.74,4,8.68,5.87,2.45,1.54.89,8.26-1.92,9.66-3.36,1.69-6.78,3.27-10.19,4.87a5.41,5.41,0,0,1-1.36.38c-1.28-3.48-6.15-3.34-7.18-6.23-1.66-4.64-5.77-7.11-8.17-11.06-2.06-3.38-2-6.12,1.77-7.64A13.82,13.82,0,0,1,239.42,339.89Z" transform="translate(-150 -150)"/><path class="cls-5" d="M289.14,409.91c10.49,2.7,18,9.08,22.86,18.64-7.21-2.75-8.46-2.37-11.85,3.61-1.4.22-2.71-2-4.16-.14-2.22-.94-6.42-1-1.95-4.76.4-.34.74-1.52.54-1.71-2.48-2.37-1-5.23-.76-7.81-1.92-.5-2,1.23-2.95,1.75-1.4.77-2.58.26-3.71-.5-1.54-1-.28-1.9.11-2.94C288,414.05,288.53,412,289.14,409.91Z" transform="translate(-150 -150)"/><path class="cls-6" d="M305,365.17c.05,1.45-.23,2.93-1.33,2.61-5-1.5-10.71.21-15.25-4.31-3.77-3.76-7.7-7.4-11.44-11.22a1.94,1.94,0,0,1-.61-2.23,1.7,1.7,0,0,1,2.08-.94c2.1.4,5.18.23,6.08,1.53,3,4.3,7.89,3.45,11.71,5.32C300.55,358.05,302.87,361.62,305,365.17Z" transform="translate(-150 -150)"/><path class="cls-5" d="M276.24,368.73c-1.81.64-3.61,1.84-5.42-.15-.34-.38-1.58-.57-1.8-.32-2.29,2.66-4.38,2.39-6.81.08-.77-.72-1.63.16-2.06,1.3a11.3,11.3,0,0,0,.38,9.08c.76,1.63,1.83,3.19,1.66,5.13-4.06-.93-6.72-4.58-10.86-5.54-1.57-.36-1.48-2.45-.86-3.92.72-1.73.62-4.19,3.39-4.3,2.34-.08,4.55-.24,3.67-3.62a1.54,1.54,0,0,1,.57-1.14c4.17.66,8.23-2.55,12.4-.39.74.38,1.38,1,2.24.64C276.44,363.85,276,366.62,276.24,368.73Z" transform="translate(-150 -150)"/><path class="cls-5" d="M314.15,352.72c1.68,3.9,5.19,4.8,8.89,5.39,1.54,2.55,3.67,3.72,6.75,4.15a12.79,12.79,0,0,1,7.23,3.82c-1.8,1.91-3.53,2.31-6,.75-2.76-1.73-6.36-1.5-9.42-2s-5.23-1.88-7.86-2.54c-4.65-1.18-6.1-3.91-5.72-8.24l.06-.07a2,2,0,0,0,2-1C311.5,354.1,312.84,353.7,314.15,352.72Z" transform="translate(-150 -150)"/><path class="cls-5" d="M263.38,385.78c4.46,7,11.07,12.24,15.84,19-4.46-.85-8-4.2-12.83-4.39a3,3,0,0,1-2.6-4.34C265.11,392.66,263.05,389.23,263.38,385.78Z" transform="translate(-150 -150)"/><path class="cls-4" d="M269.18,339.87c.05-1.32-.26-2.64,2.05-2.2,7.38,1.4,14.52,3.95,22.07,4.54,1.64.13,1.61,1.35,1.54,2.54l-3.82-.07-5-1.59C280.15,343.2,274.65,341.62,269.18,339.87Z" transform="translate(-150 -150)"/><path class="cls-5" d="M351,370.22c5.36-1.21,7.08-.27,7.43,4.51.22,3,3.3,5,2.62,8.25-2.55.15-6.09-3.61-5.87-6.18.1-1.11,2.56-2.22.4-3.2-1.63-.74-3.14.54-4.13,2a17.94,17.94,0,0,0-1.18,2.4C347.25,374.74,350.65,372.66,351,370.22Z" transform="translate(-150 -150)"/><path class="cls-3" d="M300.15,432.16c3.39-6,4.64-6.36,11.85-3.61l1.05,3.62c-1.21-.5-2.41-1-3.63-1.52-4-1.61-6.45.27-5.85,4.49a26.11,26.11,0,0,0,.74,2.86c-2,.29-3-1.77-4.73-2.1l-.18-1.38Z" transform="translate(-150 -150)"/><path class="cls-5" d="M365,379q1.5,2,3,4a1.77,1.77,0,0,0,1.85,2.14L371,387l.87,4.1c-2.82-2.84-7.09-4.08-8.88-8.05C363.21,381.48,362.22,379.32,365,379Z" transform="translate(-150 -150)"/><path class="cls-4" d="M239,403l-2.78-1.16c-1.2-2.44-2.5-4.84-3.57-7.33-.92-2.11-.28-3.47,2.27-3.41h0q2.07,5.37,4.13,10.75C239.06,402.27,239,402.66,239,403Z" transform="translate(-150 -150)"/><path class="cls-5" d="M339,367c2.95,1.21,6.28,1.36,9,3.13,0,1-.28,2.79-.92,2.49-2.87-1.35-6.07-1.09-8.86-2.06C336.07,369.82,339.59,368.46,339,367Z" transform="translate(-150 -150)"/><path class="cls-4" d="M192,367.08l3,0c.66,2.31,3,4.12,2.13,6.91C193.1,373.42,192.43,370.35,192,367.08Z" transform="translate(-150 -150)"/><path class="cls-4" d="M292.75,375l-2.19-.49a9.2,9.2,0,0,1,.77-1.24c.87-1.07,1-3,2.91-2.89a1.72,1.72,0,0,1,1.6,1.59C296.16,374.3,294.17,374.39,292.75,375Z" transform="translate(-150 -150)"/><path class="cls-5" d="M286,343.09l5,1.59C288.57,346.6,286.59,347,286,343.09Z" transform="translate(-150 -150)"/><path class="cls-4" d="M371.89,391.1,371,387c2.46.52,2.89,2.28,2.68,4.42Z" transform="translate(-150 -150)"/><path class="cls-4" d="M334,382.91c-2.25,4.12-2.55-1.17-4-.83C331.35,382.34,332.9,381.61,334,382.91Z" transform="translate(-150 -150)"/><path class="cls-4" d="M300.15,432.16l-.75,2.36L296,432C297.44,430.16,298.75,432.38,300.15,432.16Z" transform="translate(-150 -150)"/><path class="cls-5" d="M281.87,405.24c2.35-.63,3.33.38,3.24,2.69C283.2,408,282.22,407,281.87,405.24Z" transform="translate(-150 -150)"/><path class="cls-5" d="M308,354.06c-.53-.29-1.46-.51-1.52-.86-.18-1.15.87-1.09,1.64-1.22l-.06,0v2Z" transform="translate(-150 -150)"/><path class="cls-4" d="M251.07,332.62A1.81,1.81,0,0,1,249.6,334Z" transform="translate(-150 -150)"/><path class="cls-4" d="M293.79,377.06l-.8-.94Z" transform="translate(-150 -150)"/><path class="cls-4" d="M548.91,418l2-.92c2.92,1.52,3.6-1,3.83-2.65.64-4.67,4-.73,5.86-2.06,1.4-1,1.91.61,2.46,2,1.57,3.92,4.82,5.91,8.87,6.72-.75,3-3.11,2-4.86,1.73-7.24-1.14-8-.43-6.78,7.07l.22,1.44c-2,.79-2.63-1-3.61-1.87-1.21-1.06-2.71-2-4-1.18-3,2-6.49.17-9.77,2.48-3.44,2.42-6.66-1.3-9.3-3.88a1.6,1.6,0,0,1,0-.92c4.24,0,7.8-1.14,9.21-5.72l1.86-.25C547.64,422.06,548.47,420.42,548.91,418Z" transform="translate(-150 -150)"/><path class="cls-5" d="M585.93,445.09c1.68,1.87,2,5.29,5.62,5-5.57,4.13-11,8.87-18.44,3.72-2.92-4.15-7.92-6.14-10.78-10.39-.32-.47-1.54-.33-2.34-.47,0-3.48,1.65-5.24,4.37-3.71C571.13,443,578.45,444.23,585.93,445.09Z" transform="translate(-150 -150)"/><path class="cls-2" d="M552,453.92l-3.94-.07c-.79-4.64-6.19-2.78-8.14-5.79-2.14-3.11-6.53-4.52-6.83-9,3.94-2.53,8.44-3.36,12.92-4.25-.18,2.08-1.51,4,1.83,5.53C551.74,442.17,553.9,451.08,552,453.92Z" transform="translate(-150 -150)"/><path class="cls-4" d="M599,388.1c-.15,9.06-3,17.49-9.73,23.27-3.18,2.74-5.32,5.72-7.75,8.83-1.73,2.22-4.54,3.8-6.65-.16a2.28,2.28,0,0,0-2.1-1.06c-1.46-2.52,1.05-2.1,2-3.08,2.55-2.61,7.47-.8,9-5l0-.06c2.55.35,2.82-1.58,3.44-3.3.83-2.3,1.12-5.05,3.32-6.47,3.12-2,3.69-4.87,3.34-8.14-.4-3.68,1.37-5.15,4.84-5.06Z" transform="translate(-150 -150)"/><path class="cls-5" d="M552,453.92c1.95-2.84-.21-11.75-4.16-13.6-3.34-1.57-2-3.45-1.83-5.53,2.51-1.6,3.62-.35,4.17,2,1.13,2.46,2.78,4.2,5.7,4.26l.3,1.77c-.35,1.75,1.53,1.95,2.07,3,2.31,4.43,8.7,4.84,9.93,10.24-1.21,1.13-2.75.88-4.2,1-.29-.61-.84-1.07-1.37-.64-.35.29-.29,1.07-.41,1.63C557.73,459.19,555.19,455.69,552,453.92Z" transform="translate(-150 -150)"/><path class="cls-5" d="M583.75,410.85c-1.48,4.25-6.4,2.44-9,5-1,1-3.47.56-2,3.08a1.89,1.89,0,0,1-.83,2c-4.05-.81-7.3-2.8-8.87-6.72-.55-1.36-1.06-3-2.46-2-1.82,1.33-5.22-2.61-5.86,2.06-.23,1.69-.91,4.17-3.83,2.65,0-5.27,4.36-8.73,5.6-13.52,1.83-.23,1.38,2.62,3.28,2.38,3.42-.41,3.81,2,4.58,4.57,1.53,5,4.27,5.88,8.48,2.95C576.2,411.12,580,411,583.75,410.85Z" transform="translate(-150 -150)"/><path class="cls-5" d="M505.89,449.89a10.4,10.4,0,0,0,0-2.95c-.95-3-.27-5.11,2.81-6.43a2.94,2.94,0,0,0,1.86-2.71c0-.55,0-1.09,0-1.64,2.68-3.37,4.54,1.7,7,.68l.36,1.12-.24,1.78c-2.48.54-5.42,1.87-5.49,4C512,448.36,508.85,448.79,505.89,449.89Z" transform="translate(-150 -150)"/><path class="cls-4" d="M505.89,449.89c3-1.1,6.14-1.53,6.3-6.11.07-2.17,3-3.5,5.49-4,.75,7.54-3.83,13.28-12,15l-.93-3.85Z" transform="translate(-150 -150)"/><path class="cls-4" d="M568.13,456.1c-1.23-5.4-7.62-5.81-9.93-10.24-.54-1-2.42-1.24-2.07-3,.86.44,1.75.84,2.58,1.34,2.29,1.37,1.54-.2,1.28-1.3.8.14,2,0,2.34.47,2.86,4.25,7.86,6.24,10.78,10.39C571.16,453.92,570.35,456.5,568.13,456.1Z" transform="translate(-150 -150)"/><path class="cls-4" d="M582.15,433.16c-1.69.12-1.79-1.27-2-2.25-.28-1.18.5-2,1.68-1.71,2.31.64,3.54.66,2.65-2.39-.69-2.35,1-3,2.88-2.49,1.46.39,2.79.86,4.3.32,1.33-.46,3.36-1.45,3.67.48.26,1.69-1.79,3.78-3.43,3.4-2.8-.64-3.52.16-4.51,2.62C586.68,432.87,583.51,431.31,582.15,433.16Z" transform="translate(-150 -150)"/><path class="cls-5" d="M515.23,477.16c-6.3-2.33-4.39-6.91-3.1-11.31L516,466l1.09.94C518.13,470.63,518.72,474.25,515.23,477.16Z" transform="translate(-150 -150)"/><path class="cls-6" d="M492.21,456.15c-1.16-.23-2.17-.63-2.2-2.06,2.87-1.63,6.16-2.91,6-7.11a3.92,3.92,0,0,0,.86-.46c1.83-1.67,4.38-4.14,6.21-1.86s-2.07,3.33-3.3,5c-.58.79-1.18,1.55-1.78,2.32-.87,1.82-4.2,1.25-4,4.12Z" transform="translate(-150 -150)"/><path class="cls-4" d="M533,439c.3,4.5,4.69,5.91,6.83,9,0,.64,0,1.28.08,1.92-4.43-.05-9.48-3.54-10.39-7.77C529.11,440.11,531.08,439.25,533,439Z" transform="translate(-150 -150)"/><path class="cls-5" d="M494,456.11c-.21-2.87,3.12-2.3,4-4.12l6.82-1.14.93,3.85C501.71,454.35,498.09,457.26,494,456.11Z" transform="translate(-150 -150)"/><path class="cls-5" d="M522.71,455.7c-1.24-6.15-1.21-6.18,4.08-5.75,1,.37,1.12,1.32,1.41,2.16-.11.6-.23,1.2-.34,1.8-1.5,1-2.83,2.43-4.91,2.07Z" transform="translate(-150 -150)"/><path class="cls-5" d="M540,450c0-.64-.05-1.28-.08-1.92,2,3,7.35,1.15,8.14,5.79C544.13,455,542,452.54,540,450Z" transform="translate(-150 -150)"/><path class="cls-5" d="M521.06,461.07a9.5,9.5,0,0,0-.84-1.2c-1.14-1.2-4-1.59-2.91-3.84.91-2,2.14,1.66,3.62.46a7.76,7.76,0,0,1,1.78-.79l.24.28,1.17,4.09-1.06,1.09Z" transform="translate(-150 -150)"/><path class="cls-4" d="M516,466l-3.82-.13,0,0a1.91,1.91,0,0,0-1-1.83c-.12-1.51-.61-3.22,2.09-2.47a39.16,39.16,0,0,0,4.87.74C518,463.86,515.82,464.27,516,466Z" transform="translate(-150 -150)"/><path class="cls-4" d="M528.2,452.11c-.29-.84-.41-1.79-1.41-2.16.29-1.93.58-3.87.88-5.8C531.9,447.5,532,449.45,528.2,452.11Z" transform="translate(-150 -150)"/><path class="cls-4" d="M524.12,460.07,523,456c2.08.36,3.41-1,4.91-2.07C528.43,457.06,526.9,459,524.12,460.07Z" transform="translate(-150 -150)"/><path class="cls-4" d="M555.83,441.1c-2.92-.06-4.57-1.8-5.7-4.26C552.85,437.16,556.42,436.35,555.83,441.1Z" transform="translate(-150 -150)"/><path class="cls-4" d="M521.71,434.81c.58-3,2.86-3,5.18-2.92C526.7,435.59,524.12,435,521.71,434.81Z" transform="translate(-150 -150)"/><path class="cls-4" d="M550.85,487.09c-2.78-.45-2.6-2.93-3.31-4.8C551.54,481.89,551.06,484.58,550.85,487.09Z" transform="translate(-150 -150)"/><path class="cls-4" d="M517.92,438l-.36-1.12a2.66,2.66,0,0,1,3.43-1.78C521.34,437.47,520.92,439.08,517.92,438Z" transform="translate(-150 -150)"/><path class="cls-5" d="M544,457.2c-.42,1.69-1.73,2.64-3.21,2.28s-.77-1.83-.48-2.89Z" transform="translate(-150 -150)"/><path class="cls-4" d="M521.06,461.07l2,.09c-.29,1.16-.56,2.38-2.06,1Z" transform="translate(-150 -150)"/><path class="cls-4" d="M562.15,458.1c.12-.56.06-1.34.41-1.63.53-.43,1.08,0,1.37.64Z" transform="translate(-150 -150)"/><path class="cls-5" d="M598.74,387.82c-3.47-.09-5.24,1.38-4.84,5.06.35,3.27-.22,6.12-3.34,8.14-2.2,1.42-2.49,4.17-3.32,6.47-.62,1.72-.89,3.65-3.44,3.3.7-3.22,1.75-6.4,2-9.65.63-7.43,6.31-12.51,8.58-19.2.71-2.1,4.28-1.4,6.29-.39a9.31,9.31,0,0,0,5.13,1.38c-.11,2.25-1.74,2.33-3.17,1.78C599.38,383.44,599,385.48,598.74,387.82Z" transform="translate(-150 -150)"/><path class="cls-6" d="M510.57,436.16c0,.55,0,1.09,0,1.64a8.37,8.37,0,0,0-2,.17c-6.3,2.18-7.22,1.71-9.75-5a21.4,21.4,0,0,0-1.09-2.2,8,8,0,0,1,7.18-3.64C507.46,429.71,506.44,434.54,510.57,436.16Z" transform="translate(-150 -150)"/><path class="cls-5" d="M543.08,420.17c-1.41,4.58-5,5.7-9.21,5.72C535.07,421,538.63,419.86,543.08,420.17Z" transform="translate(-150 -150)"/><path class="cls-5" d="M548.91,418c-.44,2.46-1.27,4.1-4,2C545.63,418,547.19,417.82,548.91,418Z" transform="translate(-150 -150)"/><path class="cls-3" d="M636.36,401.42c-3,.76-5.93,1.53-8.9,2.28-.8.2-1.75.42-2.05-.64a1.4,1.4,0,0,1,1.31-1.76C629.91,401.16,633,399.11,636.36,401.42Z" transform="translate(-150 -150)"/><path class="cls-4" d="M192.59,382.52c-1.32,1.56-2.49,1.73-3.78,1-.17-.1-.28-.74-.16-.84C189.78,381.71,191,381.79,192.59,382.52Z" transform="translate(-150 -150)"/><path class="cls-2" d="M283,391.18l4.1-.1c-.47,3.17.64,5.1,4.07,5.22l.6.93c.22.62.42,1.24.63,1.85l.63,3c0,.81-.09,1.62-.13,2.43-1.66.48-2.89-.33-3.92-1.45-3.15-3.43-7.1-6.12-9.59-10.18C279.63,390.37,281.71,391.67,283,391.18Z" transform="translate(-150 -150)"/><path class="cls-4" d="M287.17,390.13c0-1.59-1.23-2.62-2-4.09,1.75-1.44,4,1,5.47-1a1.56,1.56,0,0,1,2.83.26c.75,1.43-.32,2.21-1.48,2.54a2.57,2.57,0,0,0-2.14,2.35Z" transform="translate(-150 -150)"/><path class="cls-4" d="M346.89,390.78c-2.89-2.3-5.83-1.71-8.69-1.77-1.39,0-2.35-.69-2.11-2.09.43-2.43,1.55-.36,2.4-.27,1.63.17,3.26.33,4.9.36C345.43,387.06,346.86,387.64,346.89,390.78Z" transform="translate(-150 -150)"/><path class="cls-5" d="M287.17,390.13l2.67.06c2.17,1.67,3,3.62,1.29,6.11-3.44-.12-4.55-2.05-4.08-5.22A1.72,1.72,0,0,1,287.17,390.13Z" transform="translate(-150 -150)"/><path class="cls-4" d="M283,391.18c-1.24.49-3.32-.81-3.61,1.7-2.67-1.14-3.25-3.32-3.18-7.41C278,389.29,283.35,385.75,283,391.18Z" transform="translate(-150 -150)"/><path class="cls-4" d="M329.48,403.49c-2.2.37-.29,4.13-3.12,4-1.2-.07-2.94-.81-2.86-2.24.14-2.46,2.42-2.74,4.32-3.12C328.62,402,329.47,402.15,329.48,403.49Z" transform="translate(-150 -150)"/><path class="cls-4" d="M290.63,379.14c-1.82,4-1.82,4-7.76,3.29Z" transform="translate(-150 -150)"/><path class="cls-5" d="M292.85,404.51c0-.81.09-1.62.13-2.43,1,.26,1.81.8,1.66,1.88S293.62,404.85,292.85,404.51Z" transform="translate(-150 -150)"/><path class="cls-4" d="M292.35,399.08c-.21-.61-.41-1.23-.63-1.85.76-.07,1.67-.31,1.84.76C293.66,398.69,293,399,292.35,399.08Z" transform="translate(-150 -150)"/><path class="cls-4" d="M530,395.83l1.81-.22c2.81,2.36,4,.28,5.18-1.88,2.61-.47,3.07,1.63,3.9,3.27-5.81,2.19-8.31,7.62-11.81,12.07-2.37-.52-4.7-1.35-7.18-.95-.19-.62-.37-1.24-.55-1.86.73-1.58.08-2.15-1.5-2.05l-1.26-2c.38-1.57.75-2.81,2.65-3.59A40.09,40.09,0,0,1,530,395.83Z" transform="translate(-150 -150)"/><path class="cls-5" d="M521.85,408.12c2.48-.4,4.81.43,7.18.95a10.08,10.08,0,0,1-4.29,6.23,3.52,3.52,0,0,0-3.77-1.08,3.92,3.92,0,0,0-2.07-2.35C519.34,410.19,521.91,410.19,521.85,408.12Z" transform="translate(-150 -150)"/><path class="cls-2" d="M549.66,380.43l.84.35c-.12.28-.18.71-.38.79s-.54-.19-.82-.31Z" transform="translate(-150 -150)"/><path class="cls-5" d="M304.31,438a26.11,26.11,0,0,1-.74-2.86c-.6-4.22,1.88-6.1,5.85-4.49,1.22.5,2.42,1,3.63,1.52,4.69,6.45,4.45,8.56-1.19,11.66-1.28.7-2.45,1.6-2.76-.69C308.7,440.24,306.57,439.09,304.31,438Z" transform="translate(-150 -150)"/><path class="cls-5" d="M293,446c-.25-.37-.51-.74-.74-1.12a2.67,2.67,0,0,1,.36-.28c.16.44.31.88.46,1.32Z" transform="translate(-150 -150)"/><path class="cls-1" d="M386.13,345c.2-6.42,4.39-10.1,8.25-8,.65.35,2,.31,1.25,1.41-2,2.88-4.18,5.64-6.42,8.34a2.24,2.24,0,0,1-2.06.52A2,2,0,0,1,386.13,345Z" transform="translate(-150 -150)"/><path class="cls-1" d="M433.67,336.69c-1.51,2.26-2.69,5.08-6.55,3.85C428.25,337.43,430.6,336.49,433.67,336.69Z" transform="translate(-150 -150)"/><path class="cls-5" d="M454.78,395.78c0-2.22,1.29-3,3.28-2.92l2.87,3.18c1.22,4.86,5.18,2.26,7.68,2.39,7,.35,14.09-.91,21.08.78-.15,2.27,1.13,4,2.15,5.84-8.68-5.12-17.88-2.88-27-1.84-1.33-.32-2.9.16-4-1.16-.88-3.05-2.15-5.72-5.87-6Z" transform="translate(-150 -150)"/><path class="cls-2" d="M489.69,399.21c-7-1.69-14.06-.43-21.08-.78-2.5-.13-6.46,2.47-7.68-2.39,6.39,1.19,12.51-2.07,18.89-1.16a2.7,2.7,0,0,0,2.25-.74c1.39-2.55,4-3.88,5.79-6l3.05-.22C490.09,391.66,488.43,395.28,489.69,399.21Z" transform="translate(-150 -150)"/><path class="cls-4" d="M464.85,403.21c9.11-1,18.31-3.28,27,1.84l.3,1.81c-3.37,1.56-6.66.18-9.89.1-5.65-.15-10.71-3.48-16.37-2.27C465.65,404.74,465.2,403.73,464.85,403.21Z" transform="translate(-150 -150)"/><path class="cls-5" d="M530,395.83a40.09,40.09,0,0,0-8.76,2.8c-1.9.78-2.27,2-2.65,3.59-2.17-2.06-3.12-4.7-1.76-7.3s4.1-2.28,6.55-1.31C525.5,394.46,528.47,393,530,395.83Z" transform="translate(-150 -150)"/><path class="cls-5" d="M536.94,393.73c-1.17,2.16-2.37,4.24-5.18,1.88C532.91,393.42,533.51,389.67,536.94,393.73Z" transform="translate(-150 -150)"/><path class="cls-6" d="M525.55,389.72c-.12.28-.18.72-.38.8a.86.86,0,0,1-.79-.34c-.08-.2.2-.54.32-.83Z" transform="translate(-150 -150)"/><path class="cls-5" d="M519.8,404.21c1.58-.1,2.23.47,1.5,2.05A2.53,2.53,0,0,1,519.8,404.21Z" transform="translate(-150 -150)"/><path class="cls-5" d="M512.19,494c-1.45-.77-1.18-2-.86-3.23C513,491.44,513.53,492.45,512.19,494Z" transform="translate(-150 -150)"/><path class="cls-5" d="M512.09,500.07l.18-2.31c.45.34,1.21.64,1.29,1.05C513.74,499.8,512.82,499.91,512.09,500.07Z" transform="translate(-150 -150)"/><path class="cls-5" d="M511.09,464a1.91,1.91,0,0,1,1,1.83c-.93.05-2.16.53-2.55-.61S510.35,464.15,511.09,464Z" transform="translate(-150 -150)"/><path class="cls-5" d="M496,447c.19,4.2-3.1,5.48-6,7.11C488.26,449.57,489.32,448.31,496,447Z" transform="translate(-150 -150)"/><path class="cls-6" d="M492.86,438.75l.44.55-.56-.41Z" transform="translate(-150 -150)"/><path class="cls-5" d="M434,399.84c1.46,1.82,3.24,1.1,5,.68,5.36-1.27,10.95-1.8,15.81-4.74l.25.27c.42,2.09-1.34,3.35-1.94,5.05l-2.06,1c-6.72.24-13.47,2.34-20.16-.23l.12-2Z" transform="translate(-150 -150)"/><path class="cls-2" d="M431,399.87l-.12,2,0,.06a3.1,3.1,0,0,0-3,2.94l-2.78,1.28c-3.15-.89-6.1,1-9.22.64,1.37-2.59,4.53-2,6.49-3.65,1.45-1.22,3.74-1.95,4-3.88s.77-2.22,2.31-2.24C430.67,397,431.09,398.18,431,399.87Z" transform="translate(-150 -150)"/><path class="cls-5" d="M545,469c-.31-2,2.69-3.31.54-6.19-1.45-1.93,2-1.37,3.32-1.9C550.42,466.33,549.33,468.6,545,469Z" transform="translate(-150 -150)"/><path class="cls-5" d="M427.87,404.84a3.1,3.1,0,0,1,3-2.94C431.23,404.27,430.35,405.37,427.87,404.84Z" transform="translate(-150 -150)"/><path class="cls-4" d="M453.09,401.1c.6-1.7,2.36-3,1.94-5.05,3.72.28,5,2.95,5.87,6A19.88,19.88,0,0,0,453.09,401.1Z" transform="translate(-150 -150)"/><path class="cls-4" d="M457,403.31c.19.23.52.44.52.65a.6.6,0,0,1-.93.57.85.85,0,0,1-.29-.76C456.4,403.57,456.79,403.46,457,403.31Z" transform="translate(-150 -150)"/><path class="cls-4" d="M369.88,385.13A1.77,1.77,0,0,1,368,383C369.37,383.08,370.06,383.73,369.88,385.13Z" transform="translate(-150 -150)"/><path class="cls-6" d="M487.86,388.17c-1.82,2.09-4.4,3.42-5.79,6a2.7,2.7,0,0,1-2.25.74c-6.38-.91-12.5,2.35-18.89,1.16l-2.87-3.18c-1.27-2-2.79-4,0-6,1.27,1.28,2.62.07,3.92.12.64,3.59,2.72,3.73,5.28,2,.9-.61,1.09-1.72,2.57-.41,3.54,3.15,5.79,1.33,7.18-2.45C480.87,385.6,484.11,388.2,487.86,388.17Z" transform="translate(-150 -150)"/><path class="cls-2" d="M308.06,354v-2a1.75,1.75,0,0,1,2,1.06A2,2,0,0,1,308.06,354Z" transform="translate(-150 -150)"/><path class="cls-5" d="M307.27,344.76c.7.29,1.56.48,1.33,1.52,0,.17-.66.41-.73.34a14.55,14.55,0,0,1-1.06-1.39C307,345.08,307.12,344.93,307.27,344.76Z" transform="translate(-150 -150)"/><path class="cls-2" d="M477,386.12c-1.39,3.78-3.64,5.6-7.18,2.45-1.48-1.31-1.67-.2-2.57.41-2.56,1.72-4.64,1.58-5.28-2A33.09,33.09,0,0,1,477,386.12Z" transform="translate(-150 -150)"/></svg>