<svg id="Layer_1" data-name="Layer 1" xmlns="http://www.w3.org/2000/svg" viewBox="0 0 500 500"><defs><style>.cls-1{fill:#fefefe;}.cls-2{fill:#b3a7da;}.cls-3{fill:#584e72;}</style></defs><path class="cls-1" d="M649.9,424q0,111,.1,221.92c0,3.42-.67,4.09-4.1,4.09q-245.89-.16-491.8,0c-3.43,0-4.1-.67-4.1-4.09q.19-113,.1-225.92c5.67-3.34,8.6-9.23,12.79-13.94a101,101,0,0,1,13.6-12.69c6.11-4.73,14.32-4.42,19.88-9.86,1.38-1.34,1.94.77,2.86,1.57,4.46,3.88,6.12,10.29,11.82,13,4.69,6.48,11.22,9.41,19,9.84,2.68.23,6-1.26,7.07,3,.1.44,1.28.87,1.46-.13.59-3.31,3.32-2.14,4.68-1.72,8.61,2.64,17.71,3.79,25.77,8.15L288.11,432c-.55,2.15,1.44,2.67,2.43,3.86.48.58,1.84.8.8,2.2-3.31,4.49-2.87,8.89.67,13.09,3.59,4,4.94,3.88,7.41-.72a23.08,23.08,0,0,1,1.63-2.36c2.21-2.67,5-3.26,7.9-1.55,7.43,4.34,10.22,3.08,13.27-5a10.61,10.61,0,0,0-1.43-10.69c-7-8.53-5.85-18.82-8-29.81,5.13,5.3,9.45,9.57,14.67,12.76a3.53,3.53,0,0,1,1.53,2.4c.15,4.19,3.07,7.11,4.51,10.69,1.1,2.72,4.63,3.92,4.49,7.15-.22,4.89,1.21,9.28,3.21,13.63,1.33,2.89,11.24,6,11.87,3.65,1.88-7,3.87-1.26,5.89-.47,3.32,1.29,7.3,2.05,10,0s.88-5.45-1-7.89a17.4,17.4,0,0,1-3.16-15.87,8.51,8.51,0,0,0-.54-5.31c-2.55-6.32-3.95-13-6.94-19.22-.36-.74-.69-1.68.05-2.3a2,2,0,0,1,2.71.13c.9.74,1.63,1.68,2.54,2.39,6.77,5.26,10.1,14,18.5,17.72,3.56,1.57,9.2,1.29,12.28-1.68,4-3.84-1.13-4.78-2.13-7a3.06,3.06,0,0,0-.39-.9c-6.91-7.19-7.94-18.11-15.79-24.81-1.27-1.09-2.95-2-3.89-3.62-5.53-9.54-12.53-17.39-23.77-20.24-6-1.53-10.61-6.5-17.21-6.6-8.28-.13-13.85-4.86-18.59-11.19-3-4-6.71-8.24-11.47-9-10.48-1.72-21.16-2.11-31.76-3.05a36.11,36.11,0,0,0-12.74.15c-7.44-.38-13.8-4.16-20.58-6.61a.9.9,0,0,0-1.29-.52l-2.67-.13c-.54-1.4-1.78-1.41-2.89-1.24-7.07,1.1-13.54-2-20.33-2.86-5.84-1.63-11.88-.51-17.78-1.28a.88.88,0,0,0-1.25-.6l-2.42.17c-4.13-1.25-8.32-.23-12.48-.33C165.7,321.26,158,325,150.1,328q0-87-.1-173.94c0-3.42.67-4.09,4.1-4.09q245.9.17,491.8,0c3.43,0,4.11.67,4.1,4.09q-.19,93.47-.1,186.93c-3.67,2-7.16,5-11.07,5.74A69.09,69.09,0,0,1,622,348.13c-3.66-.22-7,1-10.44,2.44-7.05,3-13.64,7.26-21.64,8-5.32.51-10.62.28-15.92.48-2.45.09-4.81.19-6.69,2,3.38,0,6.64,0,9.89,0,.77,0,1.8-.19,2.11.86s-.62,1.37-1.27,1.85c-2,1.49-5.63,3-5.65,4.53,0,5.88-5.17,6.24-8.19,8.82-1.61,1.39-2.75,4.5-5.83,2,.43-1.46,3.5-1.46,2-3.8-.89-1.4-2.08-1.25-3.5-.87-2,.53-3.69-.63-5.66-1,2.49-3.16,4.55-6.2,7.51-8.6-10.26,1.17-19.86,3.68-28.4,9.34,5,.84,8.86-4.05,14.22-2.76-.56,1.88-1.75,3.22-1.87,5.12-.14,2.09-1.72,3.9-4.13,3.13-4.81-1.53-8.59-1-10.88,4-.32.71-1,1.07-1.52.42-1.49-1.87-4.17-.39-6.35-2.3,2.2-.8,3.91-1.28,5.49-2,1.16-.55,2.8-1.48,2.17-2.88-.75-1.68-2.36-.47-3.43.06-5.8,2.89-12,3.12-18.31,3.22a20.63,20.63,0,0,0-10.4,2.56c-2.64,1.54-5.92,2.78-9,1.85-13.37-4.06-26.56-.11-39.82.58a2.72,2.72,0,0,0-1.38.5C441,388.87,436,390.3,431,391c-8.07,1.14-14.88,5.92-22.85,7.14-2.18.34-2.26,2.12-2.17,3.87-4.25,2.63-3.93,4.86,1.14,7.84,5.64,4.27,12,4,18.67,3.63,5.84-.36,11.06-3.17,16.77-3.53,4-.25,7.84-.27,11.71-1.56,2.91-1,6.66-2.23,9.11-1.19,5.23,2.23,10.71,1.35,16,2.64,7.26,1.78,15.06,1.16,21.23,6.93,1.87,1.74,2.63,2,1,4.29-3.7,5.38-8.63,9.48-13.25,13.94l-9.77,5.48c-2.8,2-5.24,3.52-3.93,8.1,1.35,4.73,4.36,7.08,8.14,9.2l2.1.19c2.45,1.85,4.63,2.91,8.26,2.3,4.74-.8,9.76-.5,14.65-1-.66,6.05-.4,12.4-2.25,18.05-1.47,4.47-1.46,8.68-1.59,13.07-.09,3.21,1.51,6.27.18,9.72-.63,1.66.12,4.38,1.16,6.05,2.42,3.87,5.1.62,7.65-.27,2.8-.21,4.42-1.55,5-4.46,1.73-8.46,2.9-17.1,7.41-24.74a4.43,4.43,0,0,0,.47-2.42c-.32-5,2.69-8.35,6.05-11.32a23.14,23.14,0,0,0,5-6c2.93,4.37.28,8.95-.62,12.83-2.13,9.22-1.92,17.82,1.66,26.5,2.66,6.44,3.58,6.94,10.87,4.89,6.64-4,8.12-7.32,6.43-14.86a38.18,38.18,0,0,1-.54-6.91c-.2-4.22,3.24-7.2,3.85-10.57,1.46-8.22,6.92-7,12.34-7.1,2.25-.05,4.52.68,6.78-.46,6.87-3.46,13.45-7.47,20.61-10.38a16.34,16.34,0,0,0,6.37-4.67,37.68,37.68,0,0,1,7.79-7.34c4.79-3.41,10.31-6.56,13.53-11.21,2.67-3.84,5.48-4.26,9.1-4.77C640.15,422.19,644.93,424.32,649.9,424ZM395.54,345.6c1.2,7.4,4.22,7.41,14.36,0-.72,3.78-1.45,7.38-2,11-.23,1.37-.09,2.64,1.93,2.6,1.58,0,2.25-.35,2.47-2.17a119,119,0,0,1,2.18-12.44c1.38-6.09,1.85-6.27,8.27-4.69-2.82,8.15.77,13.66,8.44,12.15,7-1.39,11.85-6.42,15.72-12.26.74-1.11-.09-1.89-.88-2.49-1-.75-1.49-.4-2.24.68a23.47,23.47,0,0,1-11.34,9c-3.32,1.22-3.27,1.37-5.63-1.68,3.47-.75,6.82-1.73,9.71-4A4.69,4.69,0,0,0,438,336a4.21,4.21,0,0,0-4.43-3.19,12,12,0,0,0-7.36,2.05c-2.71,1.92-6.66,2-8.73.22-1.66-1.41.82-4.75,1.73-7.12.72-1.85,2.17-2.45,3.92-1,.85.72,1.51,1.84,2.91.71a2.61,2.61,0,0,0,1-3.09,2.86,2.86,0,0,0-2.74-1.77A10.06,10.06,0,0,0,414,328.61c-1.54,3-.44,7.87-6,7.68.1,1.28-1.88,2.07-.85,3.57.29.42,1.64.33.92,1.13-2,2.19-3.9,5.67-6.77,5.21-2.28-.37-1.48-4.24-.94-6.2,1.12-4.13,3.51-6.25-4.13-7.14-9.56-1.12-15.09,6.19-14.4,14.24.44,5.09,3.62,6.23,8.24,3.86C392.61,349.66,393.08,346.73,395.54,345.6Zm29.06,25.62c-2-1.84,2.23-3.84-.45-5.27-4.73-2.51-10.56,1.49-10.36,6.86,0,1.24.21,2.32,1.33,3,1.34.8,2.42.34,3.53-.64.68-.59,1.13-2.42,2.52-1.13,3.14,2.93,5.17.12,7.47-1.51.44,4.1,2.45,4.26,5.49,2.76.45-.22.48-1.73,1.71-.72,2.76,2.27,2.83,2.19,3.54-1.79,4.67,3.39,6.65,3.37,8.66-.61.77-1.53,3.36-3.66,1.42-5s-2.35,1.95-3.5,3.1-1.9,2.11-3.55.48c-2.06-2,.75-1.65,1.08-2.46.46-1.12,2.46-3.44.85-3.09-4.89,1.08-2.79-2.19-3.18-3.91-.61-2.66-2.66-1.26-4.06-1.38a1.34,1.34,0,0,0-1.18,2.09c1.58,1.79,3.27,3.51.69,5.52-1.71,1.33-1.73,4.2-4.58,4.79a71.62,71.62,0,0,1,1.5-7.85c.48-1.61.72-4.47,0-4.2-2,.71-4.09-1.2-5.27.09-1.36,1.47.06,2.77,1.51,3.9,1,.75.28,2.41-.26,3.21C428.32,369.23,426.89,370.94,424.6,371.22Zm-50.38-44.47c-4.3-.41-7.81,1.45-9.18,5.21s.78,7.33,4,9.82c.89.67,2.18.79,2.71,2,.9,2,3.49,4,.23,6-2.66,1.65-5.07,1.6-7.05-1.39-.59-.88-.54-3.7-2.86-2.08-2,1.41-1.62,3.29-.34,5.18,2.59,3.84,6.52,3.23,9.88,2.33s6.59-2.73,6.6-7.3c0-4.33-2.79-6.48-5.7-8.92-1.51-1.26-4.63-2.39-2.81-5.45,1.66-2.78,4-2.17,6.44-1,.94.47,2.3,2.25,2.93-.24.38-1.47.26-3.15-1.45-3.81A12.85,12.85,0,0,0,374.22,326.75Zm39.71,34.19c-2.78,3.48-6.67,1.19-10,1.95a2.46,2.46,0,0,0-2.11,2.85c.2,1.76,1,1.48,2.35.89,1.73-.74.64.73.61,1.23a11.44,11.44,0,0,1-.73,4.75c-.45.95-1.35,3,1.06,3.53,2,.4,1.91-1.12,2.18-2.4.85-4,1.24-8.32,6.89-8.7,1.57-.1.8-1.87.89-2.91C415.17,361.35,414.7,361,413.93,360.94Z" transform="translate(-150 -150)"/><path class="cls-2" d="M255.66,332.57a36.06,36.06,0,0,1,12.73-.15c-.06,1.23-.05,2.28,1.68,2.38,7.4.45,14.63,2.61,22.21,1.44,5.46-.85,12.14,3.58,14.73,8.81l.05-.05c-1.34.28-4.05-.54-2,2.48,3.08,4.47,8.06,6.7,12.38,9.32,6.36,3.85,13.67,6.12,20.46,9.31,4.52,2.13,8.94,3.71,14.15,3.62,2.6-.05,7.9-1,6.39,5.33-.5,2.11,1.52,3.86,2.48,5.73.47.92,1.32,1.46,1.8.53,2.46-4.69,3.8.2,4.16.88,4.26,7.95,11.48,14.05,14.39,22.71.69,2.08,3.58,3.28,3.06,3.94-2.93,3.73-.31,4.82,2.33,6.15a1.77,1.77,0,0,1,.83,2.52,2,2,0,0,1-2.87,1.17c-5.55-2.46-11.13-4.49-12.73-11.8-.69-3.15-.82-9.54-7.74-7.09-.32.12-.85-.44-1.32-.58-7.13-2.05-11.67-7-14.88-13.38a4.75,4.75,0,0,0-4.34-2.75c-9.24-.61-18.5-1.25-26.51-6.73a1.7,1.7,0,0,0-2.28,0c-5.89,5.72-12.46,2.35-18.8,1.33-1.86-.3-3.23-1.55-1.27-3.45,1.19-1.16,1.57-2.31.28-3.36-1.57-1.27-2.09.43-3.08,1.25-5.05,4.15-10.33,7.83-17.51,6.11a10.81,10.81,0,0,0,7.84-7.33c.95-3.42-3.57-2.05-5.55-3-1.17-.58-.43-3.64-2.87-2.32-1.73.93.86,2.81-.54,4-.32,0-.78.08-.93-.09-3.34-3.61-8-5-11.52-2.19-2.72,2.18-2.1,6.85-.73,10.63,6.41,17.75,20.37,27.67,36.54,35.18,5.15,2.39,12.86,9.74,13.94,15-.43-4.51-8.48-1.06-7.11-7.51a2,2,0,0,0-1.24-.51c-2,.42-2.92,2.14-3.64,3.78-.63,1.43-1.87,3-.81,4.62,2,2.9,2.07,2.84-1.67,3.39.48,1.39,2.88,1.53,2.23,3.79-3.78-.21-6.4-3.95-10.31-3.67l-19.05-14.79c-.08-3.32-3.07-3.62-5.14-4.5-2.87-1.21-6.1-1.56-9-2.7-6-2.31-13.16-2.68-16.24-9.79-1-2.42-2-4.87-3.09-7.28-.42-1-1.1-1.82-2.27-1.42s-1.05,1.64-.71,2.53c1.08,2.82,2.3,5.58,3.92,9.44-5.57-2.59-8-7.63-13.57-9.57a10.42,10.42,0,0,0,5.23,6.95c3.06,1.91,4.74,3.73,1.9,7-7.81-.43-14.34-3.36-19-9.84.89-.82.36-1.42-.3-2-4.93-4.47-7.42-10.82-12-15.58-.64-.66-1.4-1.18-1.2-2.47,1.47-9.45-6.2-13.84-11.35-19.38-2.29-2.46-5.52-4.91-9.52-4.6-1.78.14-3.4,1.17-5.33.73-7.19-1.61-14.25-.42-21.26,1.26V342c2.58-.37,4.5,1.57,6.8,2.21,6.29,1.77,11.64-3.93,17.8-1.44,1.07.43,1.73-1.08,2.34-2.14a5.06,5.06,0,0,0-1.44-7.06c-3.16-2.15-7.32-4.26-10.88-2.88-4.81,1.86-10.12.75-14.62,3.31v-4c4.64-1.5,9.65-2.36,13.82-4.71,3.38-1.9,8.22-1.72,10.05-6.15,4.16.1,8.35-.92,12.48.33-.54,2.59,1.09,3.22,3.11,3.26,5.45.09,10.9.09,16.35.13,1.13,0,1.9-.44,2-1.68,6.79.88,13.26,4,20.33,2.86,1.11-.17,2.35-.16,2.89,1.24,4.36,6,12.17,5.35,17.81,9.06,2.61,1.71,6,3.33,9.58,2.14C258.72,334.06,255.9,334.33,255.66,332.57ZM226.93,381c2.26.3,5.15-.89,7.19,1.62.95,1.16,4.26,2,5.37,1.29,2.49-1.57,2.17-4.05.62-5.42-2.71-2.39-5-5.16-8-7.39a54.26,54.26,0,0,1-10-10.4c-3.08-4-5.05-9-11.22-9.19a4.19,4.19,0,0,1-3.48-1.68c-1.65-2.54-4.28-2.13-6.23-1.27a4.68,4.68,0,0,0-2.86,5.29c.6,2.61,1.53,5.36,4.49,6,3.74.81,8.64,2.34,7.9,5.92-1.33,6.43,6.47,3.13,6.26,7.31a2,2,0,0,0,.09.49C218.9,380,220.17,381,226.93,381Zm13.88-39.91c-3.94-.25-4.57,3.45-6.25,5.62-1.46,1.88.34,3.67,1.81,5.1s2.73,2.92,4.22,4.24c4.77,4.21,10,6.63,16.41,3.82,1.19-.52,2.84-.75,2.75-2.4s-1.66-1.2-2.74-1.4c-2.59-.48-4.27-1-4.61-4.66C251.79,344.89,245.86,341.66,240.81,341.05Zm53.73,1.66-23.61-5.14c-.7-.16-1.38-.18-1.62.59a1.77,1.77,0,0,0,1.34,2.29,36.39,36.39,0,0,0,7.18,1.71C283.36,342.58,288.79,344.86,294.54,342.71Z" transform="translate(-150 -150)"/><path class="cls-3" d="M537,456.94a23.14,23.14,0,0,1-5,6c-3.36,3-6.37,6.28-6.05,11.32a4.43,4.43,0,0,1-.47,2.42c-4.51,7.64-5.68,16.28-7.41,24.74-.6,2.91-2.22,4.25-5,4.46-.28-1.29-1.08-2.75-.74-3.86,2.14-6.94,1-12.81-5.64-17.24,4.19-1.75,6.25-5.07,9.06-7.48,3.82-3.27,2.82-8.39-1.59-11.09a6,6,0,0,1-2.78-2.73c-.53-1.36-.31-2.15,1.55-2,4.46.31,10.22,3,10.57-5.16,5-1.22,3.84-5.28,4.14-8.73.08-.95.85-2-.1-2.76-1.17-.94-2,.2-3.07.69-6.7,3.18-10.61,9.69-16.55,13.76-4.89.53-9.91.23-14.65,1-3.63.61-5.81-.45-8.26-2.3,2.58-.24,5.1.12,7.61-1.5a51.69,51.69,0,0,1,12.31-5.88c3.52-1.13,7.62-3.4,5.53-8.82-.86-2.23.49-4.37,1.41-6s2.39.72,3.71,1c1.14.27,1.75-.71,2.62-1.14,6.87-3.43,13-8.17,20.24-11,4.71-1.83,8.94-5.36,12.24-8.54,2.73-2.63,4.9-7.76,6.29-12.37.64.76,1.29,2.11,1.82,2.07,4.4-.37,4.89,2.93,5.87,5.87,1.33,4,4.17,4.43,7.51,2.87a22.48,22.48,0,0,1,9-2.55c2.51-.09,4.89-.91,5.75-3.84,1-3.52,2.29-6.86,5.6-9.09,1.21-.82,1.32-2.56,1.32-4.12,0-2.83.15-5.65.23-8.47.16-5.42,2.31-7,6.95-4.45,2.78,1.54,4.55.92,6.73-.64s4.29-3.34,6.73-4.13c6.83-2.21,15.55-7.2,20.19-12.14,1.1-1.17,2.54-1.49,3.35,0,2.83,5.11,7.69,3.55,12,3.92v55c-5,.33-9.75-1.8-14.77-1.1-3.62.51-6.43.93-9.1,4.77-3.22,4.65-8.74,7.8-13.53,11.21a37.68,37.68,0,0,0-7.79,7.34,16.34,16.34,0,0,1-6.37,4.67c-7.16,2.91-13.74,6.92-20.61,10.38-2.26,1.14-4.53.41-6.78.46-5.42.11-10.88-1.12-12.34,7.1-.61,3.37-4.05,6.35-3.85,10.57a38.18,38.18,0,0,0,.54,6.91c1.69,7.54.21,10.85-6.43,14.86.24-1.28.09-2.57.82-3.82A10.85,10.85,0,0,0,547.88,484c-3-3.12-5.76,0-8.57.88-.73.21-1.44.95-2.25,0-.13-2.3,3.09-3.95,2.31-5.72-3-6.67,2.31-8.24,6.18-9.66,5.61-2.05,3.47-6,3.44-9.56,0-4.5-3.33-2.56-5.41-2.63a8.18,8.18,0,0,1-4.1-1.49C538.23,455.06,537.28,455.39,537,456.94Zm28.67-3.22a6.87,6.87,0,0,0-.91-1c-5.5-3.85-9.51-9.37-13.46-14.44-3.71-4.77-6.57-4.17-10.6-2.25a7.75,7.75,0,0,1-3.25.94,4.87,4.87,0,0,0-4.24,3c-1.1,2.22,1.48,2.46,2.54,3.51a12.31,12.31,0,0,1,1.23,1.55c3.56,4.87,6.58,10.53,14.27,9,.76-.16,1.72,1.08,2.64,1.17,2.83.29,5.69,5.83,8.58,0,.14-.27,1.26,0,1.91-.1A1.41,1.41,0,0,0,565.63,453.72Zm-2.16-14.51c-1.46-.2-2.56.17-3,1.44s.65,1.72,1.5,2.23c1.45.88,2.29,2.35,3.43,3.49a41.66,41.66,0,0,0,13.17,9.29c.79.33,1.75,1.18,2.69.13a1.71,1.71,0,0,0,0-2.26c-1.38-2.22-1.39-3.73,1.85-3.65a1.43,1.43,0,0,0,1.64-1.46,2.15,2.15,0,0,0-2.17-2.29c-5.61.21-9.92-3.32-14.87-5C566.17,440.64,565.2,438.88,563.47,439.21Z" transform="translate(-150 -150)"/><path class="cls-2" d="M649.9,369c-4.28-.37-9.14,1.19-12-3.92-.81-1.45-2.25-1.13-3.35,0-4.64,4.94-13.36,9.93-20.19,12.14-2.44.79-4.59,2.6-6.73,4.13s-3.95,2.18-6.73.64c-4.64-2.58-6.79-1-6.95,4.45-.08,2.82-.23,5.64-.23,8.47,0,1.56-.11,3.3-1.32,4.12-3.31,2.23-4.57,5.57-5.6,9.09-.86,2.93-3.24,3.75-5.75,3.84a22.48,22.48,0,0,0-9,2.55c-3.34,1.56-6.18,1.11-7.51-2.87-1-2.94-1.47-6.24-5.87-5.87-.53,0-1.18-1.31-1.82-2.07-1.39,4.61-3.56,9.74-6.29,12.37-3.3,3.18-7.53,6.71-12.24,8.54-7.24,2.81-13.37,7.55-20.24,11-.87.43-1.48,1.41-2.62,1.14-1.32-.3-2.7-2.81-3.71-1s-2.27,3.78-1.41,6c2.09,5.42-2,7.69-5.53,8.82a51.69,51.69,0,0,0-12.31,5.88c-2.51,1.62-5,1.26-7.61,1.5l-2.1-.19c-5.1-4.87-2.25-11.67-4.21-17.3L488.4,435c7.17-1.13,11.6-7.62,18.64-9.31,6.34-1.52,11.33-6.27,17.35-8.74,4,3.31,7.37-.83,11.46-.86-1.61-.89-2.82-1.32-1.45-3.35,2-2.93,4.29-3.55,7.6-3a5.65,5.65,0,0,0,6-2.42c1.76-2.53-1.12-3.15-1.9-4.93,2.07-.39,4.18-.18,3.67-3.22-.47-2.77-2.34-1.91-3.79-2.07a46.13,46.13,0,0,0-5,0c-.61-2.74-5.49-6.09-6.83-4.47-3.68,4.43-7.64,1.44-11.34,1-5.35-.65-6.74.51-5.73,5.65a16,16,0,0,0,3,6.13c.87,1.26,3.4,3.11.54,4.93-2.1,1.34-4,1.58-6.11-.69-2.9-3.12-6.36-5.72-10.21-9.09,1.3,5.09.2,8.79-2.23,9.42-5.69,1.48-8.4.13-10.05-5,6.47-2,7.94-4.93,4.59-10.5-1.22-2-1-3,.33-4.64.7-.87,2.31-1.62,1.29-3.63-3.27,1.76-6.42,3.57-8.91,6.31-1.81,2,1.83,3.39.69,5.39a7,7,0,0,0-.46,1.4c-3.61-1.15-7.35-.33-11-.72-6.72-.7-13.87,2.7-20.17-2.29a2.08,2.08,0,0,0-3.36.82c-2.89,6.58-9.31,4.68-14.36,5.71-2.9.59-7.56-1.66-8.9-.24-4.73,5-10.53,3.35-15.93,4.18.1-1.55,1.3-1.48,2.4-1.92,3.12-1.25,6.49-2.4,8.05-5.78,1-2.22,6.79-5.06,8-3.39,3.48,4.74,6.79.7,10,.13,1.71-.3,4.64-1.77,3.33-4.53-1.15-2.4-4.55-1.79-5.75-.91-5.4,4-12,3.15-17.83,5.25-6,2.17-11.64,5.29-18,6.38l0,0c-.09-1.75,0-3.53,2.17-3.87,8-1.22,14.78-6,22.85-7.14,5-.7,10-2.13,14.15-5.33a2.72,2.72,0,0,1,1.38-.5c13.26-.69,26.45-4.64,39.82-.58,3.08.93,6.36-.31,9-1.85a20.63,20.63,0,0,1,10.4-2.56c6.31-.1,12.51-.33,18.31-3.22,1.07-.53,2.68-1.74,3.43-.06.63,1.4-1,2.33-2.17,2.88-1.58.75-3.29,1.23-5.49,2,2.18,1.91,4.86.43,6.35,2.3.52.65,1.2.29,1.52-.42,2.29-5,6.07-5.56,10.88-4,2.41.77,4-1,4.13-3.13.12-1.9,1.31-3.24,1.87-5.12-5.36-1.29-9.2,3.6-14.22,2.76,8.54-5.66,18.14-8.17,28.4-9.34-3,2.4-5,5.44-7.51,8.6,2,.4,3.68,1.56,5.66,1,1.42-.38,2.61-.53,3.5.87,1.47,2.34-1.6,2.34-2,3.8,3.08,2.54,4.22-.57,5.83-2,3-2.58,8.14-2.94,8.19-8.82,0-1.53,3.65-3,5.65-4.53.65-.48,1.56-.83,1.27-1.85s-1.34-.85-2.11-.86c-3.25-.05-6.51,0-9.89,0,1.88-1.82,4.24-1.92,6.69-2,5.3-.2,10.6,0,15.92-.48,8-.77,14.59-5,21.64-8,3.43-1.47,6.78-2.66,10.44-2.44a69.09,69.09,0,0,0,16.79-1.37c3.91-.73,7.4-3.74,11.07-5.74Z" transform="translate(-150 -150)"/><path class="cls-3" d="M150.1,356c7-1.68,14.07-2.87,21.26-1.26,1.93.44,3.55-.59,5.33-.73,4-.31,7.23,2.14,9.52,4.6,5.15,5.54,12.82,9.93,11.35,19.38-.2,1.29.56,1.81,1.2,2.47,4.57,4.76,7.06,11.11,12,15.58.66.6,1.19,1.2.3,2-5.7-2.72-7.36-9.13-11.82-13-.92-.8-1.48-2.91-2.86-1.57-5.56,5.44-13.77,5.13-19.88,9.86a101,101,0,0,0-13.6,12.69c-4.19,4.71-7.12,10.6-12.79,13.94Z" transform="translate(-150 -150)"/><path class="cls-1" d="M150.1,334c4.5-2.56,9.81-1.45,14.62-3.31,3.56-1.38,7.72.73,10.88,2.88a5.06,5.06,0,0,1,1.44,7.06c-.61,1.06-1.27,2.57-2.34,2.14-6.16-2.49-11.51,3.21-17.8,1.44-2.3-.64-4.22-2.58-6.8-2.21Z" transform="translate(-150 -150)"/><path class="cls-3" d="M174,319.17c-1.83,4.43-6.67,4.25-10.05,6.15-4.17,2.35-9.18,3.21-13.82,4.71v-2C158,325,165.7,321.26,174,319.17Z" transform="translate(-150 -150)"/><path class="cls-3" d="M288.11,432c3.91-.28,6.53,3.46,10.31,3.67.65-2.26-1.75-2.4-2.23-3.79,3.74-.55,3.63-.49,1.67-3.39-1.06-1.58.18-3.19.81-4.62.72-1.64,1.6-3.36,3.64-3.78a2,2,0,0,1,1.24.51c-1.37,6.45,6.68,3,7.11,7.51-1.08-5.29-8.79-12.64-13.94-15-16.17-7.51-30.13-17.43-36.54-35.18-1.37-3.78-2-8.45.73-10.63,3.54-2.85,8.18-1.42,11.52,2.19.15.17.61.07.93.09,1.4-1.2-1.19-3.08.54-4,2.44-1.32,1.7,1.74,2.87,2.32,2,1,6.5-.38,5.55,3a10.81,10.81,0,0,1-7.84,7.33c7.18,1.72,12.46-2,17.51-6.11,1-.82,1.51-2.52,3.08-1.25,1.29,1.05.91,2.2-.28,3.36-2,1.9-.59,3.15,1.27,3.45,6.34,1,12.91,4.39,18.8-1.33a1.7,1.7,0,0,1,2.28,0c8,5.48,17.27,6.12,26.51,6.73a4.75,4.75,0,0,1,4.34,2.75c3.21,6.41,7.75,11.33,14.88,13.38.47.14,1,.7,1.32.58,6.92-2.45,7.05,3.94,7.74,7.09,1.6,7.31,7.18,9.34,12.73,11.8a2,2,0,0,0,2.87-1.17,1.77,1.77,0,0,0-.83-2.52c-2.64-1.33-5.26-2.42-2.33-6.15.52-.66-2.37-1.86-3.06-3.94-2.91-8.66-10.13-14.76-14.39-22.71-.36-.68-1.7-5.57-4.16-.88-.48.93-1.33.39-1.8-.53-1-1.87-3-3.62-2.48-5.73,1.51-6.31-3.79-5.38-6.39-5.33-5.21.09-9.63-1.49-14.15-3.62-6.79-3.19-14.1-5.46-20.46-9.31-4.32-2.62-9.3-4.85-12.38-9.32-2.09-3,.62-2.2,2-2.48.24.51.47,1,.76,1.53,0,0,.72-.2.72-.32,0-1.08-.69-1.21-1.53-1.16-2.59-5.23-9.27-9.66-14.73-8.81-7.58,1.17-14.81-1-22.21-1.44-1.73-.1-1.74-1.15-1.68-2.38,10.61.94,21.29,1.33,31.77,3.05,4.76.78,8.5,5,11.47,9,4.74,6.33,10.31,11.06,18.59,11.19,6.6.1,11.22,5.07,17.21,6.6,11.24,2.85,18.24,10.7,23.77,20.24.94,1.61,2.62,2.53,3.89,3.62,7.85,6.7,8.88,17.62,15.79,24.81a3.06,3.06,0,0,1,.39.9c1,2.25,6.12,3.19,2.13,7-3.08,3-8.72,3.25-12.28,1.68-8.4-3.71-11.73-12.46-18.5-17.72-.91-.71-1.64-1.65-2.54-2.39a2,2,0,0,0-2.71-.13c-.74.62-.41,1.56-.05,2.3,3,6.17,4.39,12.9,6.94,19.22a8.51,8.51,0,0,1,.54,5.31A17.4,17.4,0,0,0,368,443c1.85,2.44,3.69,5.82,1,7.89s-6.65,1.27-10,0c-2-.79-4-6.5-5.89.47-.63,2.37-10.54-.76-11.87-3.65-2-4.35-3.43-8.74-3.21-13.63.14-3.23-3.39-4.43-4.49-7.15-1.44-3.58-4.36-6.5-4.51-10.69a3.53,3.53,0,0,0-1.53-2.4c-5.22-3.19-9.54-7.46-14.67-12.76,2.15,11,1,21.28,8,29.81a10.61,10.61,0,0,1,1.43,10.69c-3.05,8-5.84,9.3-13.27,5-2.93-1.71-5.69-1.12-7.9,1.55-2.33-2.06-5.12-2.33-8.05-2.06-.27-.32.38-1.23-.67-1l.73,1c-.26,1.74,3.15,4.24-1.05,5.19-3.54-4.2-4-8.6-.67-13.09,1-1.4-.32-1.62-.8-2.2C289.55,434.69,287.56,434.17,288.11,432Zm6.45-27.85c-1.79-3.24-3.16-6.17-2.91-9.64.2-2.77-1.64-3.84-4.11-3.82a21.56,21.56,0,0,0-4.43.6c-1.16.25-3-1-3.36.92a3.73,3.73,0,0,0,1.5,3.44c2.5,2.16,4.83,4.53,7.13,6.9C290,404.24,291.74,405.21,294.56,404.17Zm15.09,40.69c8.43-4.9,8.51-8.75.81-13.21-1.74-1-3.87-2.84-5.7-.29-1.63,2.26-1.52,4.72.84,6.56A9.8,9.8,0,0,1,309.65,444.86Z" transform="translate(-150 -150)"/><path class="cls-3" d="M524.39,417c-6,2.47-11,7.22-17.35,8.74-7,1.69-11.47,8.18-18.64,9.31,4.61-4.46,9.54-8.56,13.24-13.94,1.6-2.32.84-2.55-1-4.29-6.17-5.77-14-5.15-21.23-6.93-5.26-1.29-10.74-.41-16-2.64-2.45-1-6.2.22-9.11,1.19-3.87,1.29-7.75,1.31-11.71,1.56-5.71.36-10.93,3.17-16.77,3.53-6.64.41-13,.64-18.67-3.62.91-2.2,2.58-2.1,4.38-1.38,1.49.59,1.74-.07,1.51-1.34l2.76-.39c5.4-.83,11.2.83,15.93-4.18,1.34-1.42,6,.83,8.9.24,5.05-1,11.47.87,14.36-5.71a2.08,2.08,0,0,1,3.36-.82c6.3,5,13.45,1.59,20.17,2.29,3.67.39,7.41-.43,11,.72A8.17,8.17,0,0,0,492,405c1.65,5.14,4.36,6.49,10.05,5,2.43-.63,3.53-4.33,2.23-9.42,3.85,3.37,7.31,6,10.21,9.09,2.11,2.27,4,2,6.11.69,2.86-1.82.33-3.67-.54-4.93a16,16,0,0,1-3-6.13c-1-5.14.38-6.3,5.73-5.65,3.7.45,7.66,3.44,11.34-1,1.34-1.62,6.22,1.73,6.83,4.47-3.28,1-5.64,3.35-7.52,5.91C530.18,407.46,527.39,412.28,524.39,417Z" transform="translate(-150 -150)"/><path class="cls-3" d="M395.54,345.6c-2.46,1.13-2.93,4.06-5.45,5.36-4.62,2.37-7.8,1.23-8.24-3.86-.69-8.05,4.84-15.36,14.4-14.24,7.64.89,5.25,3,4.13,7.14-.54,2-1.34,5.83.94,6.2,2.87.46,4.81-3,6.77-5.21.72-.8-.63-.71-.92-1.13-1-1.5.95-2.29.85-3.57,5.57.19,4.47-4.67,6-7.68a10.06,10.06,0,0,1,10.27-5.79,2.86,2.86,0,0,1,2.74,1.77,2.61,2.61,0,0,1-1,3.09c-1.4,1.13-2.06,0-2.91-.71-1.75-1.47-3.2-.87-3.92,1-.91,2.37-3.39,5.71-1.73,7.12,2.07,1.76,6,1.7,8.73-.22a12,12,0,0,1,7.36-2.05A4.21,4.21,0,0,1,438,336a4.69,4.69,0,0,1-1.56,5.36c-2.89,2.24-6.24,3.22-9.71,4,2.36,3.05,2.31,2.9,5.63,1.68a23.47,23.47,0,0,0,11.34-9c.75-1.08,1.26-1.43,2.24-.68.79.6,1.62,1.38.88,2.49-3.87,5.84-8.69,10.87-15.72,12.26-7.67,1.51-11.26-4-8.44-12.15-6.42-1.58-6.89-1.4-8.27,4.69a119,119,0,0,0-2.18,12.44c-.22,1.82-.89,2.14-2.47,2.17-2,0-2.16-1.23-1.93-2.6.6-3.62,1.33-7.22,2-11C399.76,353,396.74,353,395.54,345.6Zm-9.35-1c0,1.69,0,3.67,2.5,2.18,3.28-1.95,4.62-5.65,6.93-8.48.75-.92-.76-1-1.39-1.37C390.35,334.92,386.11,339,386.19,344.65Zm40.7-4.34c4.13,1.52,5.36-1.25,7.31-3.89C430.53,336.09,428.65,337.76,426.89,340.31Z" transform="translate(-150 -150)"/><path class="cls-2" d="M507.84,459.24c5.94-4.07,9.85-10.58,16.55-13.76,1-.49,1.9-1.63,3.07-.69.95.76.18,1.81.1,2.76-.3,3.45.82,7.51-4.14,8.73-.35,8.2-6.11,5.47-10.57,5.16-1.86-.13-2.08.66-1.55,2a6,6,0,0,0,2.78,2.73c4.41,2.7,5.41,7.82,1.59,11.09-2.81,2.41-4.87,5.73-9.06,7.48,6.64,4.43,7.78,10.3,5.64,17.24-.34,1.11.46,2.57.74,3.86-2.55.89-5.23,4.14-7.65.27-1-1.67-1.79-4.39-1.16-6.05,1.33-3.45-.27-6.51-.18-9.72.13-4.39.12-8.6,1.59-13.07C507.44,471.64,507.18,465.29,507.84,459.24Z" transform="translate(-150 -150)"/><path class="cls-2" d="M537,456.94c.32-1.55,1.27-1.88,2.52-1.12a8.18,8.18,0,0,0,4.1,1.49c2.08.07,5.37-1.87,5.41,2.63,0,3.59,2.17,7.51-3.44,9.56-3.87,1.42-9.14,3-6.18,9.66.78,1.77-2.44,3.42-2.31,5.72.81.92,1.52.18,2.25,0,2.81-.83,5.55-4,8.57-.88a10.85,10.85,0,0,1,1.81,13.37c-.73,1.25-.58,2.54-.82,3.82-7.29,2-8.21,1.55-10.87-4.89-3.58-8.68-3.79-17.28-1.66-26.5C537.24,465.89,539.89,461.31,537,456.94Z" transform="translate(-150 -150)"/><path class="cls-3" d="M424.6,371.22c2.29-.28,3.72-2,4.9-3.74.54-.8,1.23-2.46.26-3.21-1.45-1.13-2.87-2.43-1.51-3.9,1.18-1.29,3.29.62,5.27-.09.73-.27.49,2.59,0,4.2a71.62,71.62,0,0,0-1.5,7.85c2.85-.59,2.87-3.46,4.58-4.79,2.58-2,.89-3.73-.69-5.52a1.34,1.34,0,0,1,1.18-2.09c1.4.12,3.45-1.28,4.06,1.38.39,1.72-1.71,5,3.18,3.91,1.61-.35-.39,2-.85,3.09-.33.81-3.14.43-1.08,2.46,1.65,1.63,2.4.66,3.55-.48s1.48-4.48,3.5-3.1-.65,3.45-1.42,5c-2,4-4,4-8.66.61-.71,4-.78,4.06-3.54,1.79-1.23-1-1.26.5-1.71.72-3,1.5-5.05,1.34-5.49-2.76-2.3,1.63-4.33,4.44-7.47,1.51-1.39-1.29-1.84.54-2.52,1.13-1.11,1-2.19,1.44-3.53.64-1.12-.68-1.29-1.76-1.33-3-.2-5.37,5.63-9.37,10.36-6.86C426.83,367.38,422.6,369.38,424.6,371.22Z" transform="translate(-150 -150)"/><path class="cls-3" d="M230.08,407.92c2.84-3.3,1.16-5.12-1.9-7a10.42,10.42,0,0,1-5.23-6.95c5.54,1.94,8,7,13.57,9.57-1.62-3.86-2.84-6.62-3.92-9.44-.34-.89-.55-2.1.71-2.53s1.85.46,2.27,1.42c1.06,2.41,2,4.86,3.09,7.28,3.08,7.11,10.28,7.48,16.24,9.79,2.91,1.14,6.14,1.49,9,2.7,2.07.88,5.06,1.18,5.14,4.5-8.06-4.36-17.16-5.51-25.77-8.15-1.36-.42-4.09-1.59-4.68,1.72-.18,1-1.36.57-1.46.13C236.13,406.66,232.76,408.15,230.08,407.92Z" transform="translate(-150 -150)"/><path class="cls-3" d="M374.22,326.75a12.85,12.85,0,0,1,3.43.41c1.71.66,1.83,2.34,1.45,3.81-.63,2.49-2,.71-2.93.24-2.42-1.22-4.78-1.83-6.44,1-1.82,3.06,1.3,4.19,2.81,5.45,2.91,2.44,5.7,4.59,5.7,8.92,0,4.57-3.26,6.4-6.6,7.3s-7.29,1.51-9.88-2.33c-1.28-1.89-1.68-3.77.34-5.18,2.32-1.62,2.27,1.2,2.86,2.08,2,3,4.39,3,7.05,1.39,3.26-2,.67-4-.23-6-.53-1.19-1.82-1.31-2.71-2-3.25-2.49-5.44-5.92-4-9.82S369.92,326.34,374.22,326.75Z" transform="translate(-150 -150)"/><path class="cls-3" d="M255.66,332.57c.24,1.76,3.06,1.49,2.85,3.94-3.58,1.19-7-.43-9.58-2.14-5.64-3.71-13.45-3-17.81-9.06l2.67.13,1.29.52C241.86,328.41,248.22,332.19,255.66,332.57Z" transform="translate(-150 -150)"/><path class="cls-3" d="M413.93,360.94c.77,0,1.24.41,1.18,1.19-.09,1,.68,2.81-.89,2.91-5.65.38-6,4.69-6.89,8.7-.27,1.28-.18,2.8-2.18,2.4-2.41-.49-1.51-2.58-1.06-3.53a11.44,11.44,0,0,0,.73-4.75c0-.5,1.12-2-.61-1.23-1.38.59-2.15.87-2.35-.89a2.46,2.46,0,0,1,2.11-2.85C407.26,362.13,411.15,364.42,413.93,360.94Z" transform="translate(-150 -150)"/><path class="cls-3" d="M478.62,440.48c2,5.63-.89,12.43,4.21,17.3-3.78-2.12-6.79-4.47-8.14-9.2C473.38,444,475.82,442.44,478.62,440.48Z" transform="translate(-150 -150)"/><path class="cls-3" d="M207.9,321.21c-.09,1.24-.86,1.69-2,1.68-5.45,0-10.9,0-16.35-.13-2,0-3.65-.67-3.11-3.26l2.42-.17,1.25.6C196,320.7,202.06,319.58,207.9,321.21Z" transform="translate(-150 -150)"/><path class="cls-2" d="M292,451.17c4.2-.95.79-3.45,1.05-5.19l-.06,0c2.93-.27,5.72,0,8.05,2.06a23.08,23.08,0,0,0-1.63,2.36C297,455.05,295.6,455.19,292,451.17Z" transform="translate(-150 -150)"/><path class="cls-2" d="M413,407.14c.23,1.27,0,1.93-1.51,1.34-1.8-.72-3.47-.82-4.38,1.38-5.07-3-5.39-5.22-1.14-7.85l0,0C406.46,406.27,411.47,404.35,413,407.14Z" transform="translate(-150 -150)"/><path class="cls-2" d="M190.12,319.93l-1.25-.6A.88.88,0,0,1,190.12,319.93Z" transform="translate(-150 -150)"/><path class="cls-2" d="M235.08,326l-1.29-.52A.9.9,0,0,1,235.08,326Z" transform="translate(-150 -150)"/><path class="cls-1" d="M226.93,381c-6.76,0-8-1-9.87-7.42a2,2,0,0,1-.09-.49c.21-4.18-7.59-.88-6.26-7.31.74-3.58-4.16-5.11-7.9-5.92-3-.65-3.89-3.4-4.49-6a4.68,4.68,0,0,1,2.86-5.29c1.95-.86,4.58-1.27,6.23,1.27a4.19,4.19,0,0,0,3.48,1.68c6.17.23,8.14,5.2,11.22,9.19a54.26,54.26,0,0,0,10,10.4c2.95,2.23,5.28,5,8,7.39,1.55,1.37,1.87,3.85-.62,5.42-1.11.7-4.42-.13-5.37-1.29C232.08,380.07,229.19,381.26,226.93,381Z" transform="translate(-150 -150)"/><path class="cls-1" d="M240.81,341.05c5.05.61,11,3.84,11.59,10.32.34,3.7,2,4.18,4.61,4.66,1.08.2,2.66-.22,2.74,1.4s-1.56,1.88-2.75,2.4c-6.43,2.81-11.64.39-16.41-3.82-1.49-1.32-2.8-2.84-4.22-4.24s-3.27-3.22-1.81-5.1C236.24,344.5,236.87,340.8,240.81,341.05Z" transform="translate(-150 -150)"/><path class="cls-3" d="M294.54,342.71c-5.75,2.15-11.18-.13-16.71-.55a36.39,36.39,0,0,1-7.18-1.71,1.77,1.77,0,0,1-1.34-2.29c.24-.77.92-.75,1.62-.59Z" transform="translate(-150 -150)"/><path class="cls-2" d="M565.63,453.72a1.41,1.41,0,0,1-1.29,1.39c-.65.08-1.77-.17-1.91.1-2.89,5.8-5.75.26-8.58,0-.92-.09-1.88-1.33-2.64-1.17-7.69,1.56-10.71-4.1-14.27-9a12.31,12.31,0,0,0-1.23-1.55c-1.06-1.05-3.64-1.29-2.54-3.51a4.87,4.87,0,0,1,4.24-3,7.75,7.75,0,0,0,3.25-.94c4-1.92,6.89-2.52,10.6,2.25,4,5.07,8,10.59,13.46,14.44A6.87,6.87,0,0,1,565.63,453.72Z" transform="translate(-150 -150)"/><path class="cls-2" d="M563.47,439.21c1.73-.33,2.7,1.43,4.24,2,4.95,1.65,9.26,5.18,14.87,5a2.15,2.15,0,0,1,2.17,2.29,1.43,1.43,0,0,1-1.64,1.46c-3.24-.08-3.23,1.43-1.85,3.65a1.71,1.71,0,0,1,0,2.26c-.94,1-1.9.2-2.69-.13a41.66,41.66,0,0,1-13.17-9.29c-1.14-1.14-2-2.61-3.43-3.49-.85-.51-1.91-1-1.5-2.23S562,439,563.47,439.21Z" transform="translate(-150 -150)"/><path class="cls-1" d="M524.39,417c3-4.67,5.79-9.49,9.07-13.94,1.88-2.56,4.24-4.94,7.52-5.91a46.13,46.13,0,0,1,5,0c1.45.16,3.32-.7,3.79,2.07.51,3-1.6,2.83-3.67,3.22.78,1.78,3.66,2.4,1.9,4.93a5.65,5.65,0,0,1-6,2.42c-3.31-.56-5.62.06-7.6,3-1.37,2-.16,2.46,1.45,3.35C531.76,416.12,528.4,420.26,524.39,417Z" transform="translate(-150 -150)"/><path class="cls-1" d="M413,407.14c-1.57-2.79-6.58-.87-7.06-5.16,6.37-1.09,12-4.21,18-6.38,5.81-2.1,12.43-1.27,17.83-5.25,1.2-.88,4.6-1.49,5.75.91,1.31,2.76-1.62,4.23-3.33,4.53-3.19.57-6.5,4.61-10-.13-1.22-1.67-7,1.17-8,3.39-1.56,3.38-4.93,4.53-8.05,5.78-1.1.44-2.3.37-2.4,1.92Z" transform="translate(-150 -150)"/><path class="cls-1" d="M492,405a8.17,8.17,0,0,1-2.47-5.67,7,7,0,0,1,.46-1.4c1.14-2-2.5-3.4-.69-5.39,2.49-2.74,5.64-4.55,8.91-6.31,1,2-.59,2.76-1.29,3.63-1.28,1.6-1.55,2.6-.33,4.64C500,400,498.48,403,492,405Zm2.36-5.68c.27.12.59.38.79.31a.84.84,0,0,0,.33-.75c-.09-.2-.5-.25-.77-.37C494.6,398.74,494.48,399,494.37,399.28Z" transform="translate(-150 -150)"/><path class="cls-2" d="M294.56,404.17c-2.82,1-4.55.07-6.18-1.6-2.3-2.37-4.63-4.74-7.13-6.9a3.73,3.73,0,0,1-1.5-3.44c.37-1.91,2.2-.67,3.36-.92a21.56,21.56,0,0,1,4.43-.6c2.47,0,4.31,1.05,4.11,3.82C291.4,398,292.77,400.93,294.56,404.17Z" transform="translate(-150 -150)"/><path class="cls-2" d="M309.65,444.86a9.8,9.8,0,0,0-4-6.94c-2.36-1.84-2.47-4.3-.84-6.56,1.83-2.55,4-.72,5.7.29C318.16,436.11,318.08,440,309.65,444.86Z" transform="translate(-150 -150)"/><path class="cls-2" d="M307,345.05c.84-.05,1.58.08,1.53,1.16,0,.12-.7.35-.72.32-.29-.49-.52-1-.76-1.53Z" transform="translate(-150 -150)"/><path class="cls-2" d="M293.06,446l-.73-1c1.05-.19.4.72.67,1Z" transform="translate(-150 -150)"/><path class="cls-1" d="M386.19,344.65c-.08-5.7,4.16-9.73,8-7.67.63.33,2.14.45,1.39,1.37-2.31,2.83-3.65,6.53-6.93,8.48C386.17,348.32,386.2,346.34,386.19,344.65Z" transform="translate(-150 -150)"/><path class="cls-1" d="M426.89,340.31c1.76-2.55,3.64-4.22,7.31-3.89C432.25,339.06,431,341.83,426.89,340.31Z" transform="translate(-150 -150)"/><path class="cls-2" d="M494.37,399.28c.11-.27.23-.54.35-.81.27.12.68.17.77.37a.84.84,0,0,1-.33.75C495,399.66,494.64,399.4,494.37,399.28Z" transform="translate(-150 -150)"/></svg>